<svg xmlns="http://www.w3.org/2000/svg" viewBox="0 0 483.47 158.5"><defs><style>.cls-1{fill:#4c5c66;}.cls-2{fill:#7eba28;}</style></defs><g id="Ebene_2" data-name="Ebene 2"><g id="Ebene_1-2" data-name="Ebene 1"><path class="cls-1" d="M158.33,77h-18v35.11H122.17V18.87h36.16c19.25,0,30.78,13.23,30.78,29.08S177.58,77,158.33,77Zm-.92-41.92h-17V60.65h17c8.25,0,13.49-5.1,13.49-12.7S165.66,35.11,157.41,35.11Z" transform="translate(0 -18.08)"/><path class="cls-1" d="M210.07,112.14V18.87h18.21v93.27Z" transform="translate(0 -18.08)"/><path class="cls-1" d="M255.66,112.14V18.87h18.21v77h42.31v16.25Z" transform="translate(0 -18.08)"/><path class="cls-1" d="M389.67,102.7c-6.55,6.55-14.54,10.22-25.15,10.22s-18.73-3.67-25.28-10.22c-9.43-9.43-9.17-21.09-9.17-37.2s-.26-27.77,9.17-37.2c6.55-6.55,14.67-10.22,25.28-10.22s18.6,3.67,25.15,10.22c9.43,9.43,9.3,21.09,9.3,37.2S399.1,93.27,389.67,102.7ZM376.18,39.3a15.15,15.15,0,0,0-11.66-5,15.44,15.44,0,0,0-11.79,5c-3.54,3.93-4.45,8.25-4.45,26.2s.91,22.27,4.45,26.2a15.44,15.44,0,0,0,11.79,5,15.15,15.15,0,0,0,11.66-5c3.54-3.93,4.58-8.25,4.58-26.2S379.72,43.23,376.18,39.3Z" transform="translate(0 -18.08)"/><path class="cls-1" d="M448.89,112.92c-14.15,0-24.89-3-34.06-12.31l11.79-11.79c5.89,5.89,13.88,7.86,22.53,7.86,10.74,0,16.5-4.06,16.5-11.53,0-3.27-.91-6-2.88-7.86s-3.93-2.62-8.25-3.27l-11.27-1.58c-8-1.17-13.88-3.66-18.07-7.72-4.46-4.46-6.69-10.48-6.69-18.34,0-16.64,12.32-28.3,32.49-28.3,12.84,0,22.14,3.14,30.13,10.87l-11.53,11.4c-5.89-5.63-13-6.42-19.12-6.42-9.7,0-14.41,5.37-14.41,11.79a9,9,0,0,0,2.75,6.68,16,16,0,0,0,8.64,3.67l11,1.57c8.51,1.18,13.88,3.54,17.81,7.21,5,4.71,7.21,11.52,7.21,19.78C483.47,102.7,468.4,112.92,448.89,112.92Z" transform="translate(0 -18.08)"/><path class="cls-1" d="M32.53,76.59a18.76,18.76,0,0,1-6-14.52c.43-9.94,8.79-18,19.09-18.38C57,43.27,66.34,52,66.34,62.87a18.88,18.88,0,0,1-6,13.72,1.18,1.18,0,0,0,.13,1.85,13.28,13.28,0,0,1,4.39,5.08,1.24,1.24,0,0,0,1.95.38,28.23,28.23,0,0,0,9.43-21.73c-.39-15.24-13.18-27.64-29-28.08-16.81-.46-30.68,12.62-30.68,28.78a28.21,28.21,0,0,0,9.45,21,1.26,1.26,0,0,0,2-.38,13.6,13.6,0,0,1,4.39-5.08,1.18,1.18,0,0,0,.13-1.83ZM46.44,18.87C20.77,18.87,0,38.91,0,63.67,0,81.68,10.91,96.8,26.06,104a1.22,1.22,0,0,0,1.76-1.26c-.5-3.1-.89-6.18-1.12-8.86a1.14,1.14,0,0,0-.56-.9A34.9,34.9,0,0,1,9.93,63.47c.15-19.26,16.46-34.94,36.41-35,20.17-.06,36.59,15.76,36.59,35.2A35,35,0,0,1,66.22,93.26c-.21,2.8-.64,6.12-1.16,9.44A1.23,1.23,0,0,0,66.82,104c15.11-7.14,26.06-22.24,26.06-40.29C92.88,38.91,72.11,18.87,46.44,18.87Z" transform="translate(0 -18.08)"/><g id="Ebene_2-2" data-name="Ebene 2"><path class="cls-2" d="M55.44,113.6c-1.06,3.8-5.1,4.68-9,4.68s-7.94-.88-9-4.68c-1.57-5.68-4.27-19.94-4.27-26.56,0-7,6.45-8.76,13.27-8.76S59.71,80,59.71,87c0,6.58-2.68,20.82-4.27,26.56Z" transform="translate(0 -18.08)"/><ellipse class="cls-2" cx="46.44" cy="44.19" rx="13.27" ry="12.8"/></g><path class="cls-1" d="M129.88,140.6h-4.53v7h-1.83V130.54h6.36c3.13,0,5.29,2,5.29,5S133,140.6,129.88,140.6Zm-.16-8.42h-4.37V139h4.37c2.13,0,3.62-1.15,3.62-3.41S131.85,132.18,129.72,132.18Z" transform="translate(0 -18.08)"/><path class="cls-1" d="M139.68,147.63V130.54h1.82V146h8.74v1.63Z" transform="translate(0 -18.08)"/><path class="cls-1" d="M164.42,147.63l-1.37-3.86h-7.46l-1.37,3.86h-1.94l6.28-17.09h1.54l6.26,17.09Zm-5.06-14.47-3.22,9h6.38Z" transform="translate(0 -18.08)"/><path class="cls-1" d="M173.73,132.18v15.45h-1.82V132.18H167v-1.64h11.72v1.64Z" transform="translate(0 -18.08)"/><path class="cls-1" d="M187.92,132.18v15.45h-1.83V132.18h-4.94v-1.64h11.71v1.64Z" transform="translate(0 -18.08)"/><path class="cls-1" d="M198.91,132.18v6.28h7.49v1.64h-7.49v7.53h-1.83V130.54h10.61v1.64Z" transform="translate(0 -18.08)"/><path class="cls-1" d="M221.25,146a6.24,6.24,0,0,1-8.73,0c-1.61-1.61-1.61-3.29-1.61-6.91s0-5.31,1.61-6.91a6.24,6.24,0,0,1,8.73,0c1.61,1.6,1.61,3.28,1.61,6.91S222.86,144.39,221.25,146Zm-1.41-12.74a4.16,4.16,0,0,0-5.91,0c-1.08,1.1-1.2,2.25-1.2,5.83s.12,4.73,1.2,5.83a4.19,4.19,0,0,0,5.91,0c1.08-1.1,1.2-2.26,1.2-5.83S220.92,134.36,219.84,133.26Z" transform="translate(0 -18.08)"/><path class="cls-1" d="M238,147.63l-3.88-7.58H230v7.58h-1.82V130.54h6.55c3,0,5.06,1.8,5.06,4.76a4.43,4.43,0,0,1-3.72,4.58l4.06,7.75Zm-3.43-15.45H230v6.26h4.56c2,0,3.41-1,3.41-3.12S236.56,132.18,234.57,132.18Z" transform="translate(0 -18.08)"/><path class="cls-1" d="M257.78,147.63v-13l-4.68,10.29h-1.56l-4.75-10.29v13H245V130.54h1.83l5.57,12.12,5.42-12.12h1.82v17.09Z" transform="translate(0 -18.08)"/><path class="cls-1" d="M274.41,132.18v6.28h7.49v1.64h-7.49v7.53h-1.82V130.54H283.2v1.64Z" transform="translate(0 -18.08)"/><path class="cls-1" d="M293.25,147.78A5.65,5.65,0,0,1,287.3,142V130.54h1.82v11.31a4.14,4.14,0,1,0,8.28,0V130.54h1.83V142A5.67,5.67,0,0,1,293.25,147.78Zm-3.41-19.08v-2.14h1.73v2.14Zm5.09,0v-2.14h1.73v2.14Z" transform="translate(0 -18.08)"/><path class="cls-1" d="M314.78,147.63l-3.89-7.58h-4.1v7.58H305V130.54h6.56c3,0,5.06,1.8,5.06,4.76a4.43,4.43,0,0,1-3.72,4.58l4.06,7.75Zm-3.43-15.45h-4.56v6.26h4.56c2,0,3.41-1,3.41-3.12S313.34,132.18,311.35,132.18Z" transform="translate(0 -18.08)"/><path class="cls-1" d="M328.75,147.63V130.54h1.82v17.09Z" transform="translate(0 -18.08)"/><path class="cls-1" d="M347.44,147.63l-9.07-13.7v13.7h-1.82V130.54h1.72l9.08,13.66V130.54h1.82v17.09Z" transform="translate(0 -18.08)"/><path class="cls-1" d="M360.16,132.18v15.45h-1.82V132.18h-4.95v-1.64h11.72v1.64Z" transform="translate(0 -18.08)"/><path class="cls-1" d="M369.33,147.63V130.54h10.61v1.64h-8.79v6h7.49v1.63h-7.49V146h8.79v1.63Z" transform="translate(0 -18.08)"/><path class="cls-1" d="M394.58,147.63l-3.89-7.58h-4.1v7.58h-1.83V130.54h6.55c3,0,5.07,1.8,5.07,4.76a4.43,4.43,0,0,1-3.72,4.58l4.06,7.75Zm-3.43-15.45h-4.56v6.26h4.56c2,0,3.41-1,3.41-3.12S393.14,132.18,391.15,132.18Z" transform="translate(0 -18.08)"/><path class="cls-1" d="M411.5,147.63l-1.37-3.86h-7.46l-1.37,3.86h-1.95l6.29-17.09h1.54l6.26,17.09Zm-5.07-14.47-3.21,9h6.38Z" transform="translate(0 -18.08)"/><path class="cls-1" d="M427.87,147.63l-5.21-9.09-3.6,4.32v4.77h-1.83V130.54h1.83v9.82l8-9.82h2.23l-5.38,6.6L430,147.63Z" transform="translate(0 -18.08)"/><path class="cls-1" d="M438.88,132.18v15.45h-1.82V132.18h-4.95v-1.64h11.72v1.64Z" transform="translate(0 -18.08)"/><path class="cls-1" d="M448.05,147.63V130.54h1.82v17.09Z" transform="translate(0 -18.08)"/><path class="cls-1" d="M460.67,147.63h-1.48l-5.62-17.09h1.92l4.44,13.83,4.44-13.83h1.92Z" transform="translate(0 -18.08)"/><path class="cls-1" d="M470,147.63V130.54h10.61v1.64h-8.78v6h7.49v1.63h-7.49V146h8.78v1.63Z" transform="translate(0 -18.08)"/><path class="cls-1" d="M123.52,176.43V159.34h1.83V174.8h8.74v1.63Z" transform="translate(0 -18.08)"/><path class="cls-1" d="M138.31,176.43V159.34h1.82v17.09Z" transform="translate(0 -18.08)"/><path class="cls-1" d="M150.93,176.43h-1.49l-5.61-17.09h1.92l4.44,13.83,4.44-13.83h1.92Z" transform="translate(0 -18.08)"/><path class="cls-1" d="M160.24,176.43V159.34h10.61V161h-8.78v6h7.49v1.63h-7.49v6.17h8.78v1.63Z" transform="translate(0 -18.08)"/><path class="cls-1" d="M175,170.77v-1.61h6.57v1.61Z" transform="translate(0 -18.08)"/><path class="cls-1" d="M196.63,174.8a6.25,6.25,0,0,1-8.74,0c-1.61-1.61-1.61-3.29-1.61-6.91s0-5.31,1.61-6.91a6.25,6.25,0,0,1,8.74,0c1.61,1.6,1.61,3.28,1.61,6.91S198.24,173.19,196.63,174.8Zm-1.42-12.74a4.15,4.15,0,0,0-5.9,0c-1.08,1.1-1.2,2.25-1.2,5.83s.12,4.73,1.2,5.83a4.18,4.18,0,0,0,5.9,0c1.08-1.1,1.2-2.26,1.2-5.83S196.29,163.16,195.21,162.06Z" transform="translate(0 -18.08)"/><path class="cls-1" d="M214.46,176.43l-9.07-13.7v13.7h-1.83V159.34h1.73L214.36,173V159.34h1.83v17.09Z" transform="translate(0 -18.08)"/><path class="cls-1" d="M222.16,176.43V159.34H224V174.8h8.73v1.63Z" transform="translate(0 -18.08)"/><path class="cls-1" d="M237,176.43V159.34h1.82v17.09Z" transform="translate(0 -18.08)"/><path class="cls-1" d="M255.64,176.43l-9.07-13.7v13.7h-1.82V159.34h1.73L255.55,173V159.34h1.82v17.09Z" transform="translate(0 -18.08)"/><path class="cls-1" d="M263.35,176.43V159.34H274V161h-8.79v6h7.49v1.63h-7.49v6.17H274v1.63Z" transform="translate(0 -18.08)"/><path class="cls-1" d="M278.13,170.77v-1.61h6.58v1.61Z" transform="translate(0 -18.08)"/><path class="cls-1" d="M294.43,176.58a7.45,7.45,0,0,1-5.86-2.26l1.25-1.25a5.84,5.84,0,0,0,4.66,1.87c2.49,0,4-1.17,4-3.16a2.77,2.77,0,0,0-.82-2.14,3.71,3.71,0,0,0-2.23-.82l-2-.31a6.25,6.25,0,0,1-3.15-1.29A4.07,4.07,0,0,1,289,164c0-2.9,2.08-4.82,5.47-4.82a6.88,6.88,0,0,1,5.09,1.87l-1.18,1.18a5.38,5.38,0,0,0-4-1.47c-2.28,0-3.6,1.28-3.6,3.17a2.5,2.5,0,0,0,.76,2,5,5,0,0,0,2.31.94l1.87.28a5.52,5.52,0,0,1,3.12,1.2,4.28,4.28,0,0,1,1.44,3.39C300.33,174.73,298,176.58,294.43,176.58Z" transform="translate(0 -18.08)"/><path class="cls-1" d="M305.18,176.43V159.34h10.61V161H307v6h7.49v1.63H307v6.17h8.79v1.63Z" transform="translate(0 -18.08)"/><path class="cls-1" d="M333.43,176.43v-13l-4.68,10.29h-1.56l-4.76-10.29v13h-1.82V159.34h1.82L328,171.46l5.43-12.12h1.82v17.09Z" transform="translate(0 -18.08)"/><path class="cls-1" d="M341.23,176.43V159.34h1.82v17.09Z" transform="translate(0 -18.08)"/><path class="cls-1" d="M359.92,176.43l-9.07-13.7v13.7H349V159.34h1.72L359.83,173V159.34h1.82v17.09Z" transform="translate(0 -18.08)"/><path class="cls-1" d="M377.59,176.43l-1.37-3.86h-7.47l-1.36,3.86h-1.95l6.29-17.09h1.54l6.26,17.09ZM372.52,162l-3.21,9h6.38Z" transform="translate(0 -18.08)"/><path class="cls-1" d="M393.14,176.43l-3.89-7.58h-4.1v7.58h-1.83V159.34h6.56c3,0,5.06,1.8,5.06,4.76a4.43,4.43,0,0,1-3.72,4.58l4.06,7.75ZM389.71,161h-4.56v6.26h4.56c2,0,3.41-1,3.41-3.12S391.7,161,389.71,161Z" transform="translate(0 -18.08)"/><path class="cls-1" d="M400.1,176.43V159.34h10.61V161h-8.79v6h7.49v1.63h-7.49v6.17h8.79v1.63Z" transform="translate(0 -18.08)"/></g></g></svg>