<svg xmlns="http://www.w3.org/2000/svg" viewBox="0 0 292.98 141.75"><defs><style>.cls-1{fill:#24356a;}.cls-2{fill:none;}.cls-3{fill:#4c5c66;}.cls-4{fill:#f5aa05;}</style></defs><g id="Ebene_2" data-name="Ebene 2"><g id="Ebene_1-2" data-name="Ebene 1"><path class="cls-1" d="M10,16.06H37.4a32.16,32.16,0,0,1,12.32,2,21,21,0,0,1,7.65,5.17,17.58,17.58,0,0,1,3.9,7,28,28,0,0,1,1.1,7.54,27.83,27.83,0,0,1-1.1,7.53,17.52,17.52,0,0,1-3.9,7,20.86,20.86,0,0,1-7.65,5.17,32,32,0,0,1-12.32,2H20.57V93.94H10ZM20.57,50.38H34.43a37.87,37.87,0,0,0,6.11-.5,16.34,16.34,0,0,0,5.38-1.81,9.91,9.91,0,0,0,3.8-3.8,12.78,12.78,0,0,0,1.43-6.43,12.82,12.82,0,0,0-1.43-6.44,9.88,9.88,0,0,0-3.8-3.79,16.35,16.35,0,0,0-5.38-1.82,37.86,37.86,0,0,0-6.11-.49H20.57Z" transform="translate(-8.34 -7.12)"/><path class="cls-1" d="M75.24,16.06H85.8V93.94H75.24Z" transform="translate(-8.34 -7.12)"/><path class="cls-1" d="M105.82,16.06h10.56V84h35.75v9.9H105.82Z" transform="translate(-8.34 -7.12)"/><path class="cls-2" d="M198.66,95.92a42,42,0,0,1-16.39-3.14,38.13,38.13,0,0,1-12.82-8.63,40.08,40.08,0,0,1-8.36-13,42.87,42.87,0,0,1-3-16.17,42.87,42.87,0,0,1,3-16.17,40.08,40.08,0,0,1,8.36-13,38.16,38.16,0,0,1,12.82-8.64,44.48,44.48,0,0,1,32.78,0,38.11,38.11,0,0,1,12.81,8.64,39.75,39.75,0,0,1,8.36,13,42.68,42.68,0,0,1,3,16.17,42.68,42.68,0,0,1-3,16.17,39.75,39.75,0,0,1-8.36,13,38.09,38.09,0,0,1-12.81,8.63A42,42,0,0,1,198.66,95.92Zm0-9.9A28.36,28.36,0,0,0,220,76.89,29.59,29.59,0,0,0,225.94,67a35.75,35.75,0,0,0,0-24.09A29.64,29.64,0,0,0,220,33.11a29.16,29.16,0,0,0-42.68,0A29.31,29.31,0,0,0,171.38,43a35.75,35.75,0,0,0,0,24.09,29.26,29.26,0,0,0,5.94,9.85A28.36,28.36,0,0,0,198.66,86Z" transform="translate(-8.34 -7.12)"/><path class="cls-1" d="M256.74,77.66A17.24,17.24,0,0,0,264.05,84a21.83,21.83,0,0,0,9.19,2,18.75,18.75,0,0,0,5.39-.83,16.34,16.34,0,0,0,5-2.47,13.69,13.69,0,0,0,3.69-4.07A10.83,10.83,0,0,0,288.75,73a8.44,8.44,0,0,0-2.86-6.88,25.14,25.14,0,0,0-7.1-4q-4.23-1.59-9.24-3.08A37.45,37.45,0,0,1,260.31,55a22.56,22.56,0,0,1-7.09-7.1q-2.86-4.45-2.86-12a20.7,20.7,0,0,1,6.16-14.3,25.61,25.61,0,0,1,8.19-5.34,30.51,30.51,0,0,1,12.05-2.14A42.17,42.17,0,0,1,289,15.84,21,21,0,0,1,299.2,23l-8.58,7.81A14.29,14.29,0,0,0,285,25.85,17.71,17.71,0,0,0,276.76,24a20,20,0,0,0-7.32,1.15,13.12,13.12,0,0,0-4.67,3A10.51,10.51,0,0,0,262.29,32a11.86,11.86,0,0,0-.71,3.85q0,4.95,2.86,7.59a22.15,22.15,0,0,0,7.09,4.29,85.17,85.17,0,0,0,9.24,3A39.71,39.71,0,0,1,290,54.39a21.67,21.67,0,0,1,7.1,6.38q2.85,4,2.86,11.06A23.28,23.28,0,0,1,297.82,82a22.38,22.38,0,0,1-5.77,7.59,25.68,25.68,0,0,1-8.58,4.73,33.18,33.18,0,0,1-10.56,1.65,38.38,38.38,0,0,1-14.19-2.64,23.28,23.28,0,0,1-10.67-8.14Z" transform="translate(-8.34 -7.12)"/><path class="cls-3" d="M8.34,112.28h5a9.64,9.64,0,0,1,2,.19,4.34,4.34,0,0,1,1.62.65A3.32,3.32,0,0,1,18,114.38a4.28,4.28,0,0,1,.4,2,4.48,4.48,0,0,1-.38,2,3.26,3.26,0,0,1-1,1.27,4.11,4.11,0,0,1-1.58.67,8.83,8.83,0,0,1-2,.2H11.3v5.25h-3Zm3,5.7h2a3.77,3.77,0,0,0,.76-.08,2.08,2.08,0,0,0,.67-.26,1.41,1.41,0,0,0,.48-.49,1.57,1.57,0,0,0,.18-.79,1.34,1.34,0,0,0-.24-.83,1.61,1.61,0,0,0-.61-.48,2.67,2.67,0,0,0-.83-.22c-.3,0-.59,0-.87,0H11.3Z" transform="translate(-8.34 -7.12)"/><path class="cls-3" d="M20.71,112.28h3V123h5.49v2.74H20.71Z" transform="translate(-8.34 -7.12)"/><path class="cls-3" d="M35.5,112.28H38l5.85,13.45H40.46l-1.16-2.85H34.08L33,125.73H29.69Zm1.14,3.91L35,120.37H38.3Z" transform="translate(-8.34 -7.12)"/><path class="cls-3" d="M46.3,114.9H42.46v-2.62H53.1v2.62H49.26v10.83h-3Z" transform="translate(-8.34 -7.12)"/><path class="cls-3" d="M57.49,114.9H53.65v-2.62H64.29v2.62H60.45v10.83h-3Z" transform="translate(-8.34 -7.12)"/><path class="cls-3" d="M66.19,112.28h9V115H69.15v2.74h5.61v2.73H69.15v5.25h-3Z" transform="translate(-8.34 -7.12)"/><path class="cls-3" d="M76.91,119a7.59,7.59,0,0,1,.54-2.92A6.38,6.38,0,0,1,79,113.84a6.63,6.63,0,0,1,2.3-1.41,8.21,8.21,0,0,1,2.9-.5,8.31,8.31,0,0,1,2.91.5,6.73,6.73,0,0,1,2.3,1.41,6.38,6.38,0,0,1,1.51,2.24,8.19,8.19,0,0,1,0,5.85,6.34,6.34,0,0,1-1.51,2.23,6.75,6.75,0,0,1-2.3,1.42,8.31,8.31,0,0,1-2.91.49,8.21,8.21,0,0,1-2.9-.49,6.66,6.66,0,0,1-2.3-1.42,6.34,6.34,0,0,1-1.51-2.23A7.65,7.65,0,0,1,76.91,119ZM80,119a4.85,4.85,0,0,0,.3,1.74,4,4,0,0,0,.84,1.37,3.78,3.78,0,0,0,1.32.9,4.36,4.36,0,0,0,1.72.32,4.29,4.29,0,0,0,1.72-.32,3.61,3.61,0,0,0,1.32-.9,4,4,0,0,0,.85-1.37,4.85,4.85,0,0,0,.29-1.74,4.91,4.91,0,0,0-.29-1.73,3.92,3.92,0,0,0-.85-1.37,3.76,3.76,0,0,0-1.32-.91,4.47,4.47,0,0,0-1.72-.32,4.54,4.54,0,0,0-1.72.32,4,4,0,0,0-1.32.91,3.9,3.9,0,0,0-.84,1.37A4.91,4.91,0,0,0,80,119Z" transform="translate(-8.34 -7.12)"/><path class="cls-3" d="M93.72,112.28h5.21a8.68,8.68,0,0,1,1.94.2,4.53,4.53,0,0,1,1.62.66,3.34,3.34,0,0,1,1.1,1.25,4.32,4.32,0,0,1,.41,2,4,4,0,0,1-.74,2.42,3.36,3.36,0,0,1-2.17,1.27l3.42,5.68H101l-2.81-5.38H96.68v5.38h-3Zm3,5.56h1.75l.85,0a2.34,2.34,0,0,0,.81-.17,1.3,1.3,0,0,0,.59-.44,1.37,1.37,0,0,0,.24-.86,1.45,1.45,0,0,0-.21-.82,1.39,1.39,0,0,0-.53-.46,2.37,2.37,0,0,0-.74-.22,5.76,5.76,0,0,0-.82-.06H96.68Z" transform="translate(-8.34 -7.12)"/><path class="cls-3" d="M106.32,112.28h4.48l3.1,8.77h0l3.11-8.77h4.47v13.45h-3V115.41h0L115,125.73h-2.26l-3.4-10.32h0v10.32h-3Z" transform="translate(-8.34 -7.12)"/><path class="cls-3" d="M130.56,112.28h9V115h-6.06v2.74h5.6v2.73h-5.6v5.25h-3Z" transform="translate(-8.34 -7.12)"/><path class="cls-3" d="M153.34,120.54a6.57,6.57,0,0,1-.36,2.21,4.85,4.85,0,0,1-1.07,1.74,4.91,4.91,0,0,1-1.78,1.16,7.41,7.41,0,0,1-4.92,0,4.91,4.91,0,0,1-1.78-1.16,4.85,4.85,0,0,1-1.07-1.74,6.57,6.57,0,0,1-.36-2.21v-8.26h3v8.15a3.36,3.36,0,0,0,.2,1.16,2.77,2.77,0,0,0,.56.92,2.58,2.58,0,0,0,.87.61,2.79,2.79,0,0,0,1.09.21,2.74,2.74,0,0,0,1.08-.21,2.64,2.64,0,0,0,.86-.61,3,3,0,0,0,.56-.92,3.36,3.36,0,0,0,.2-1.16v-8.15h3Zm-7.66-9.14a1.44,1.44,0,0,1-.62-.13,1.64,1.64,0,0,1-.5-.36,1.77,1.77,0,0,1-.33-.52,1.67,1.67,0,0,1-.12-.62,1.52,1.52,0,0,1,.12-.59,1.41,1.41,0,0,1,.33-.49,1.75,1.75,0,0,1,.49-.35,1.32,1.32,0,0,1,.6-.13,1.71,1.71,0,0,1,1.16.44,1.45,1.45,0,0,1,.49,1.12,1.61,1.61,0,0,1-.46,1.16A1.55,1.55,0,0,1,145.68,111.4Zm4,0a1.45,1.45,0,0,1-.63-.13,1.6,1.6,0,0,1-.49-.36,2,2,0,0,1-.34-.52,1.67,1.67,0,0,1-.12-.62,1.52,1.52,0,0,1,.12-.59,1.59,1.59,0,0,1,.34-.49,1.85,1.85,0,0,1,.48-.35,1.32,1.32,0,0,1,.6-.13,1.71,1.71,0,0,1,1.16.44,1.41,1.41,0,0,1,.49,1.12,1.64,1.64,0,0,1-.45,1.16A1.57,1.57,0,0,1,149.64,111.4Z" transform="translate(-8.34 -7.12)"/><path class="cls-3" d="M156.36,112.28h5.21a8.83,8.83,0,0,1,2,.2,4.55,4.55,0,0,1,1.61.66,3.34,3.34,0,0,1,1.1,1.25,4.32,4.32,0,0,1,.41,2,4,4,0,0,1-.74,2.42,3.33,3.33,0,0,1-2.17,1.27l3.42,5.68H163.6l-2.81-5.38h-1.46v5.38h-3Zm3,5.56h1.74l.85,0a2.29,2.29,0,0,0,.81-.17,1.38,1.38,0,0,0,.6-.44,1.71,1.71,0,0,0,0-1.68,1.39,1.39,0,0,0-.53-.46,2.29,2.29,0,0,0-.74-.22,5.76,5.76,0,0,0-.82-.06h-1.93Z" transform="translate(-8.34 -7.12)"/><path class="cls-3" d="M174.83,112.28h3v13.45h-3Z" transform="translate(-8.34 -7.12)"/><path class="cls-3" d="M180.78,112.28h4l5.71,9.34h0v-9.34h3v13.45h-3.88l-5.87-9.58h0v9.58h-3Z" transform="translate(-8.34 -7.12)"/><path class="cls-3" d="M199.15,114.9h-3.84v-2.62H206v2.62h-3.84v10.83h-3Z" transform="translate(-8.34 -7.12)"/><path class="cls-3" d="M207.85,112.28H217V115h-6.17v2.51h5.83v2.74h-5.83V123h6.51v2.74h-9.48Z" transform="translate(-8.34 -7.12)"/><path class="cls-3" d="M220,112.28h5.21a8.83,8.83,0,0,1,2,.2,4.55,4.55,0,0,1,1.61.66,3.34,3.34,0,0,1,1.1,1.25,4.32,4.32,0,0,1,.41,2,4,4,0,0,1-.74,2.42,3.33,3.33,0,0,1-2.17,1.27l3.42,5.68h-3.55l-2.81-5.38H223v5.38h-3Zm3,5.56h1.74l.85,0a2.29,2.29,0,0,0,.81-.17,1.38,1.38,0,0,0,.6-.44,1.71,1.71,0,0,0,0-1.68,1.39,1.39,0,0,0-.53-.46,2.29,2.29,0,0,0-.74-.22,5.76,5.76,0,0,0-.82-.06H223Z" transform="translate(-8.34 -7.12)"/><path class="cls-3" d="M237,112.28h2.45l5.85,13.45H242l-1.16-2.85h-5.23l-1.12,2.85H231.2Zm1.14,3.91-1.64,4.18h3.29Z" transform="translate(-8.34 -7.12)"/><path class="cls-3" d="M247.07,112.28h3v5.58l5.23-5.58h3.87l-6,6.25,6.49,7.2H255.5L250,119.34v6.39h-3Z" transform="translate(-8.34 -7.12)"/><path class="cls-3" d="M263.56,114.9h-3.84v-2.62h10.64v2.62h-3.84v10.83h-3Z" transform="translate(-8.34 -7.12)"/><path class="cls-3" d="M272.11,112.28h3v13.45h-3Z" transform="translate(-8.34 -7.12)"/><path class="cls-3" d="M276.73,112.28h3.38l3.32,8.81h0l3.38-8.81H290l-5.55,13.45H282.1Z" transform="translate(-8.34 -7.12)"/><path class="cls-3" d="M291.83,112.28H301V115h-6.18v2.51h5.84v2.74h-5.84V123h6.52v2.74h-9.48Z" transform="translate(-8.34 -7.12)"/><path class="cls-3" d="M8.45,135.08h3v10.71H16.9v2.74H8.45Z" transform="translate(-8.34 -7.12)"/><path class="cls-3" d="M18.79,135.08h3v13.45h-3Z" transform="translate(-8.34 -7.12)"/><path class="cls-3" d="M23.4,135.08h3.38l3.33,8.81h0l3.38-8.81H36.7l-5.55,13.45H28.78Z" transform="translate(-8.34 -7.12)"/><path class="cls-3" d="M38.51,135.08h9.14v2.73H41.47v2.51H47.3v2.74H41.47v2.73H48v2.74H38.51Z" transform="translate(-8.34 -7.12)"/><path class="cls-3" d="M54.43,144.94H49.75v-2.28h4.68Z" transform="translate(-8.34 -7.12)"/><path class="cls-3" d="M55.83,141.8a7.41,7.41,0,0,1,.55-2.92,6.38,6.38,0,0,1,1.51-2.24,6.63,6.63,0,0,1,2.3-1.41,8.21,8.21,0,0,1,2.9-.5,8.31,8.31,0,0,1,2.91.5,6.73,6.73,0,0,1,2.3,1.41,6.51,6.51,0,0,1,1.51,2.24,8.19,8.19,0,0,1,0,5.85A6.47,6.47,0,0,1,68.3,147a6.6,6.6,0,0,1-2.3,1.42,8.31,8.31,0,0,1-2.91.49,8.21,8.21,0,0,1-2.9-.49,6.51,6.51,0,0,1-2.3-1.42,6.34,6.34,0,0,1-1.51-2.23A7.46,7.46,0,0,1,55.83,141.8Zm3.08,0a4.85,4.85,0,0,0,.3,1.74,3.84,3.84,0,0,0,.84,1.37,3.92,3.92,0,0,0,1.32.9,4.36,4.36,0,0,0,1.72.32,4.29,4.29,0,0,0,1.72-.32,3.82,3.82,0,0,0,1.32-.9,4,4,0,0,0,.85-1.37,5.08,5.08,0,0,0,.29-1.74,5.15,5.15,0,0,0-.29-1.73,3.92,3.92,0,0,0-.85-1.37,3.85,3.85,0,0,0-1.32-.91,4.47,4.47,0,0,0-1.72-.32,4.54,4.54,0,0,0-1.72.32,4,4,0,0,0-1.32.91,3.76,3.76,0,0,0-.84,1.37A4.91,4.91,0,0,0,58.91,141.8Z" transform="translate(-8.34 -7.12)"/><path class="cls-3" d="M72.65,135.08h4l5.72,9.34h0v-9.34h3v13.45H81.52L75.65,139h0v9.58h-3Z" transform="translate(-8.34 -7.12)"/><path class="cls-3" d="M88.53,135.08h3v10.71H97v2.74H88.53Z" transform="translate(-8.34 -7.12)"/><path class="cls-3" d="M98.87,135.08h3v13.45h-3Z" transform="translate(-8.34 -7.12)"/><path class="cls-3" d="M104.82,135.08h4l5.72,9.34h0v-9.34h3v13.45h-3.88L107.82,139h0v9.58h-3Z" transform="translate(-8.34 -7.12)"/><path class="cls-3" d="M120.7,135.08h9.14v2.73h-6.18v2.51h5.84v2.74h-5.84v2.73h6.52v2.74H120.7Z" transform="translate(-8.34 -7.12)"/><path class="cls-3" d="M145.4,138.36a2.1,2.1,0,0,0-1-.67,3.39,3.39,0,0,0-1.17-.22,3.05,3.05,0,0,0-.66.08,2.78,2.78,0,0,0-.65.23,1.36,1.36,0,0,0-.49.43,1.06,1.06,0,0,0-.19.65,1.09,1.09,0,0,0,.45.93,4.56,4.56,0,0,0,1.15.55c.46.15,1,.3,1.49.45a6.48,6.48,0,0,1,1.5.65,3.61,3.61,0,0,1,1.15,1.12,3.46,3.46,0,0,1,.45,1.88,4.32,4.32,0,0,1-.42,2,3.94,3.94,0,0,1-1.13,1.39,4.71,4.71,0,0,1-1.65.81,7.53,7.53,0,0,1-4.42-.13,6.09,6.09,0,0,1-2.09-1.29l2.11-2.32a3.08,3.08,0,0,0,1.15.94,3.29,3.29,0,0,0,1.43.33,3.11,3.11,0,0,0,.74-.08,2.39,2.39,0,0,0,.66-.26,1.43,1.43,0,0,0,.48-.43,1.11,1.11,0,0,0,.18-.63,1.13,1.13,0,0,0-.47-1,4,4,0,0,0-1.17-.6c-.47-.16-1-.33-1.52-.49a7.16,7.16,0,0,1-1.52-.67,3.72,3.72,0,0,1-1.17-1.1,3.18,3.18,0,0,1-.46-1.81,4,4,0,0,1,.43-1.9,4,4,0,0,1,1.14-1.36,4.79,4.79,0,0,1,1.64-.83,6.86,6.86,0,0,1,1.92-.28,7.37,7.37,0,0,1,2.2.33,5,5,0,0,1,1.92,1.08Z" transform="translate(-8.34 -7.12)"/><path class="cls-3" d="M150.05,135.08h9.14v2.73H153v2.51h5.83v2.74H153v2.73h6.52v2.74h-9.49Z" transform="translate(-8.34 -7.12)"/><path class="cls-3" d="M162.2,135.08h4.48l3.1,8.77h0l3.12-8.77h4.47v13.45h-3V138.21h0l-3.53,10.32H168.6l-3.4-10.32h0v10.32h-3Z" transform="translate(-8.34 -7.12)"/><path class="cls-3" d="M180.38,135.08h3v13.45h-3Z" transform="translate(-8.34 -7.12)"/><path class="cls-3" d="M186.32,135.08h4l5.72,9.34h0v-9.34h3v13.45H195.2L189.33,139h0v9.58h-3Z" transform="translate(-8.34 -7.12)"/><path class="cls-3" d="M206.52,135.08H209l5.85,13.45h-3.34l-1.16-2.85H205.1L204,148.53h-3.27Zm1.14,3.91L206,143.17h3.28Z" transform="translate(-8.34 -7.12)"/><path class="cls-3" d="M216.46,135.08h5.2a8.71,8.71,0,0,1,2,.2,4.61,4.61,0,0,1,1.62.66,3.34,3.34,0,0,1,1.1,1.25,4.32,4.32,0,0,1,.41,2,4,4,0,0,1-.74,2.42,3.36,3.36,0,0,1-2.17,1.27l3.42,5.68H223.7l-2.82-5.38h-1.46v5.38h-3Zm3,5.56h1.75l.85,0a2.28,2.28,0,0,0,.8-.17,1.25,1.25,0,0,0,.84-1.3,1.45,1.45,0,0,0-.21-.82,1.46,1.46,0,0,0-.53-.46,2.37,2.37,0,0,0-.74-.22,5.76,5.76,0,0,0-.82-.06h-1.94Z" transform="translate(-8.34 -7.12)"/><path class="cls-3" d="M229.17,135.08h9.14v2.73h-6.18v2.51H238v2.74h-5.84v2.73h6.52v2.74h-9.48Z" transform="translate(-8.34 -7.12)"/><path id="path16" class="cls-1" d="M186.52,63.44a18.41,18.41,0,0,1-5.86-14.17,19.47,19.47,0,0,1,38.86.78,18.51,18.51,0,0,1-5.85,13.39,1.14,1.14,0,0,0,0,1.59,1.19,1.19,0,0,0,.2.19,12.87,12.87,0,0,1,4.28,5,1.2,1.2,0,0,0,1.6.56.87.87,0,0,0,.28-.19,27.6,27.6,0,0,0,9.22-21.21c-.38-14.86-12.86-27-28.3-27.39C184.53,21.49,171,34.26,171,50a27.49,27.49,0,0,0,9.24,20.49,1.2,1.2,0,0,0,1.71,0l0,0a2.2,2.2,0,0,0,.21-.32,13,13,0,0,1,4.28-5,1.14,1.14,0,0,0,.29-1.59l-.16-.2ZM200.1,7.12c-25,0-45.32,19.55-45.32,43.71a43.71,43.71,0,0,0,25.47,39.35,1.18,1.18,0,0,0,1.59-.51A1,1,0,0,0,182,89c-.47-3-.86-6-1.08-8.65a1.11,1.11,0,0,0-.56-.87,34.07,34.07,0,0,1-15.8-28.8c.14-18.8,16.06-34.1,35.53-34.16s35.71,15.37,35.71,34.35a34.18,34.18,0,0,1-16.32,28.88c-.21,2.74-.62,6-1.13,9.22a1.17,1.17,0,0,0,1,1.36,1.1,1.1,0,0,0,.73-.11,43.64,43.64,0,0,0,25.47-39.3C245.42,26.67,225.14,7.12,200.1,7.12Z" transform="translate(-8.34 -7.12)"/><g id="Ebene_2-2" data-name="Ebene 2-2"><path id="path18" class="cls-4" d="M208.89,99.62c-1,3.71-5,4.57-8.79,4.57s-7.75-.86-8.79-4.57c-1.59-5.54-4.17-19.47-4.17-25.91,0-6.83,6.37-8.55,13-8.55S213,66.75,213,73.66c0,6.37-2.61,20.31-4.15,25.92Z" transform="translate(-8.34 -7.12)"/><path id="ellipse20" class="cls-4" d="M200.1,37a12.5,12.5,0,1,1-13,12.48A12.74,12.74,0,0,1,200.1,37Z" transform="translate(-8.34 -7.12)"/></g></g></g></svg>