<svg id="Ebene_1" data-name="Ebene 1" xmlns="http://www.w3.org/2000/svg" viewBox="0 0 90.77 97.07"><defs><style>.cls-1{fill:none;}.cls-2{fill:#24356a;}.cls-3{fill:#f5aa05;}</style></defs><g id="Ebene_2" data-name="Ebene 2"><g id="Ebene_1-2" data-name="Ebene 1-2"><path class="cls-1" d="M47.33,88.8a42,42,0,0,1-16.39-3.14A38.11,38.11,0,0,1,18.12,77,40.25,40.25,0,0,1,9.76,64a43,43,0,0,1-3-16.17,43,43,0,0,1,3-16.17,40.25,40.25,0,0,1,8.36-13,38.29,38.29,0,0,1,12.82-8.64,44.51,44.51,0,0,1,32.78,0,38.15,38.15,0,0,1,12.81,8.64,39.71,39.71,0,0,1,8.36,13,42.61,42.61,0,0,1,3,16.17,42.61,42.61,0,0,1-3,16.17,39.71,39.71,0,0,1-8.36,13,38,38,0,0,1-12.81,8.63A42,42,0,0,1,47.33,88.8Zm0-9.9a28.35,28.35,0,0,0,21.34-9.13,29.65,29.65,0,0,0,5.94-9.89,35.71,35.71,0,0,0,0-24.09A29.59,29.59,0,0,0,68.67,26a29.16,29.16,0,0,0-41.21-1.47Q26.7,25.23,26,26a29.45,29.45,0,0,0-5.94,9.89,35.83,35.83,0,0,0,0,24.09A29.37,29.37,0,0,0,26,69.82a28.36,28.36,0,0,0,21.34,9.06Z" transform="translate(-3.45)"/><path id="path16" class="cls-2" d="M35.19,56.32a18.42,18.42,0,0,1-5.86-14.17,19.47,19.47,0,0,1,38.86.78,18.47,18.47,0,0,1-5.85,13.39,1.14,1.14,0,0,0,0,1.59,1.8,1.8,0,0,0,.2.19,12.86,12.86,0,0,1,4.28,5,1.2,1.2,0,0,0,1.6.56.77.77,0,0,0,.28-.19,27.6,27.6,0,0,0,9.22-21.21c-.38-14.86-12.86-27-28.3-27.39-16.42-.5-29.95,12.27-29.95,28a27.49,27.49,0,0,0,9.24,20.49,1.2,1.2,0,0,0,1.7,0h0a2.2,2.2,0,0,0,.21-.32,13,13,0,0,1,4.28-5,1.15,1.15,0,0,0,.3-1.59h0l-.16-.2ZM48.77,0C23.77,0,3.45,19.55,3.45,43.71A43.72,43.72,0,0,0,28.92,83.06a1.18,1.18,0,0,0,1.59-.51h0a1,1,0,0,0,.16-.67c-.47-3-.86-6-1.08-8.65a1.11,1.11,0,0,0-.56-.87,34.09,34.09,0,0,1-15.8-28.8c.14-18.8,16.06-34.1,35.53-34.16S84.47,24.77,84.47,43.75A34.17,34.17,0,0,1,68.15,72.63c-.21,2.74-.62,6-1.13,9.22a1.17,1.17,0,0,0,1,1.35h0a1.09,1.09,0,0,0,.73-.11A43.62,43.62,0,0,0,94.22,43.8C94.09,19.55,73.81,0,48.77,0Z" transform="translate(-3.45)"/><g id="Ebene_2-2" data-name="Ebene 2-2"><path id="path18" class="cls-3" d="M57.56,92.5c-1,3.71-5,4.57-8.79,4.57S41,96.21,40,92.5C38.39,87,35.81,73,35.81,66.59c0-6.83,6.37-8.55,13-8.55s12.86,1.59,12.86,8.5c0,6.37-2.61,20.31-4.15,25.92Z" transform="translate(-3.45)"/><path id="ellipse20" class="cls-3" d="M48.77,29.88a12.5,12.5,0,1,1-13,12.48,12.74,12.74,0,0,1,13-12.48Z" transform="translate(-3.45)"/></g></g></g></svg>