<?xml version="1.0" encoding="UTF-8"?><svg id="Ebene_2" xmlns="http://www.w3.org/2000/svg" viewBox="0 0 289.96 97.07"><defs><style>.cls-1{fill:#f5aa05;}.cls-2{fill:none;}.cls-3{fill:#24356a;}</style></defs><g id="Ebene_1-2"><path class="cls-3" d="m0,8.94h27.4c4.2-.14,8.38.54,12.32,2,2.9,1.13,5.52,2.9,7.65,5.17,1.82,2,3.16,4.4,3.9,7,.71,2.45,1.08,4.99,1.1,7.54-.02,2.55-.39,5.08-1.1,7.53-.74,2.6-2.08,5-3.9,7-2.13,2.27-4.75,4.04-7.65,5.17-3.94,1.47-8.12,2.15-12.32,2H10.57v34.47H0V8.94Zm10.57,34.32h13.86c2.05,0,4.09-.17,6.11-.5,1.89-.28,3.71-.9,5.38-1.81,1.59-.89,2.91-2.21,3.8-3.8,1.03-1.98,1.52-4.2,1.43-6.43.09-2.23-.4-4.45-1.43-6.44-.89-1.59-2.21-2.9-3.8-3.79-1.67-.92-3.49-1.53-5.38-1.82-2.02-.33-4.06-.49-6.11-.49h-13.86v25.08Z"/><path class="cls-3" d="m65.24,8.94h10.56v77.88h-10.56V8.94Z"/><path class="cls-3" d="m95.82,8.94h10.56v67.94h35.75v9.9h-46.31V8.94Z"/><path class="cls-2" d="m188.66,88.8c-5.62.06-11.19-1.01-16.39-3.14-4.82-1.97-9.18-4.91-12.82-8.63-3.6-3.75-6.44-8.17-8.36-13-2.03-5.15-3.05-10.64-3-16.17-.05-5.53.97-11.02,3-16.17,1.92-4.83,4.76-9.25,8.36-13,3.64-3.72,8-6.66,12.82-8.64,10.53-4.17,22.25-4.17,32.78,0,4.82,1.98,9.17,4.92,12.81,8.64,3.61,3.74,6.45,8.16,8.36,13,2.04,5.14,3.06,10.64,3,16.17.06,5.53-.96,11.03-3,16.17-1.91,4.84-4.75,9.26-8.36,13-3.64,3.72-8,6.66-12.81,8.63-5.2,2.13-10.77,3.2-16.39,3.14Zm0-9.9c8.09.14,15.85-3.18,21.34-9.13,2.61-2.88,4.63-6.24,5.94-9.89,2.79-7.79,2.79-16.3,0-24.09-1.32-3.62-3.34-6.95-5.94-9.8-10.98-11.79-29.43-12.44-41.21-1.47-.51.47-1,.96-1.47,1.47-2.62,2.87-4.63,6.23-5.94,9.89-2.79,7.79-2.79,16.3,0,24.09,1.31,3.64,3.33,6.99,5.94,9.85,5.5,5.92,13.26,9.22,21.34,9.06v.02Z"/><path class="cls-3" d="m246.74,70.54c1.78,2.77,4.32,4.97,7.31,6.34,2.88,1.33,6.02,2.01,9.19,2,1.83-.01,3.64-.29,5.39-.83,1.8-.53,3.49-1.37,5-2.47,1.49-1.09,2.75-2.48,3.69-4.07.98-1.71,1.47-3.66,1.43-5.63.17-2.61-.89-5.15-2.86-6.88-2.13-1.71-4.53-3.06-7.1-4-2.82-1.06-5.9-2.09-9.24-3.08-3.25-.92-6.36-2.28-9.24-4.04-2.87-1.8-5.29-4.23-7.09-7.1-1.91-2.97-2.86-6.97-2.86-12,.11-5.39,2.32-10.52,6.16-14.3,2.36-2.29,5.14-4.1,8.19-5.34,3.83-1.52,7.93-2.25,12.05-2.14,4.14-.03,8.27.55,12.24,1.72,4.05,1.3,7.6,3.8,10.2,7.16l-8.58,7.81c-1.4-2.12-3.34-3.84-5.62-4.96-2.56-1.27-5.38-1.91-8.24-1.85-2.49-.08-4.97.31-7.32,1.15-1.75.66-3.35,1.68-4.67,3-1.1,1.09-1.95,2.4-2.48,3.85-.45,1.24-.69,2.54-.71,3.85,0,3.3.95,5.83,2.86,7.59,2.07,1.86,4.48,3.32,7.09,4.29,3.02,1.17,6.11,2.18,9.24,3,3.22.83,6.32,2.06,9.23,3.66,2.81,1.57,5.24,3.75,7.1,6.38,1.9,2.67,2.85,6.35,2.86,11.06.06,3.51-.67,6.98-2.14,10.17-1.36,2.92-3.32,5.5-5.77,7.59-2.53,2.11-5.44,3.72-8.58,4.73-3.41,1.12-6.97,1.67-10.56,1.65-4.85.03-9.67-.87-14.19-2.64-4.28-1.61-7.99-4.44-10.67-8.14l8.69-7.53Z"/><path id="path16" class="cls-3" d="m176.52,56.32c-3.92-3.65-6.06-8.82-5.86-14.17.87-10.72,10.26-18.7,20.98-17.83,9.81.8,17.48,8.78,17.88,18.61-.03,5.08-2.15,9.92-5.85,13.39-.43.44-.43,1.15,0,1.59.06.07.13.13.2.19,1.84,1.27,3.31,2.99,4.28,5,.29.6,1,.85,1.6.56.1-.04.2-.11.28-.19,6.03-5.38,9.4-13.13,9.22-21.21-.38-14.86-12.86-27-28.3-27.39-16.42-.5-29.95,12.27-29.95,28.01.02,7.83,3.38,15.29,9.24,20.49.47.47,1.22.48,1.7.01,0,0,0,0,.01-.01h0c.08-.1.15-.21.21-.32.97-2.01,2.45-3.73,4.28-5,.52-.36.65-1.07.29-1.59,0,0,0,0,0,0l-.16-.2-.05.06ZM190.1,0c-25,0-45.32,19.55-45.32,43.71.14,16.94,10.07,32.28,25.47,39.35.58.3,1.29.07,1.59-.51,0,0,0,0,0,0,.13-.2.19-.43.16-.67-.47-3-.86-6-1.08-8.65-.03-.36-.24-.69-.56-.87-9.85-6.26-15.81-17.13-15.8-28.8.14-18.8,16.06-34.1,35.53-34.16s35.71,15.37,35.71,34.35c-.09,11.8-6.26,22.72-16.32,28.88-.21,2.74-.62,6-1.13,9.22-.11.64.32,1.24.95,1.35.02,0,.03,0,.05,0,.25.05.51,0,.73-.11,15.4-7.05,25.32-22.37,25.47-39.3-.13-24.25-20.41-43.8-45.45-43.8Z"/><path id="path18" class="cls-1" d="m198.89,92.5c-1,3.71-5,4.57-8.79,4.57s-7.75-.86-8.79-4.57c-1.59-5.54-4.17-19.47-4.17-25.91,0-6.83,6.37-8.55,13-8.55s12.86,1.59,12.86,8.5c0,6.37-2.61,20.31-4.15,25.92l.04.04Z"/><path id="ellipse20" class="cls-1" d="m190.1,29.88c6.9.28,12.27,6.09,11.99,12.99-.28,6.9-6.09,12.27-12.99,11.99-6.71-.27-12.01-5.79-12-12.5.14-7.03,5.96-12.62,12.99-12.48,0,0,0,0,0,0Z"/></g></svg>