<?xml version="1.0" encoding="UTF-8" standalone="no"?>
<!DOCTYPE svg PUBLIC "-//W3C//DTD SVG 1.1//EN" "http://www.w3.org/Graphics/SVG/1.1/DTD/svg11.dtd">
<svg width="100%" height="100%" viewBox="0 0 290 98" version="1.1" xmlns="http://www.w3.org/2000/svg" xmlns:xlink="http://www.w3.org/1999/xlink" xml:space="preserve" xmlns:serif="http://www.serif.com/" style="fill-rule:evenodd;clip-rule:evenodd;stroke-linejoin:round;stroke-miterlimit:2;">
    <g transform="matrix(1,0,0,1,-10,-7.12)">
        <path d="M10,16.06L37.4,16.06C41.598,15.916 45.783,16.595 49.72,18.06C52.622,19.194 55.235,20.961 57.37,23.23C59.191,25.232 60.526,27.628 61.27,30.23C61.979,32.681 62.349,35.218 62.37,37.77C62.35,40.319 61.98,42.852 61.27,45.3C60.528,47.903 59.193,50.299 57.37,52.3C55.238,54.573 52.624,56.34 49.72,57.47C45.785,58.939 41.598,59.618 37.4,59.47L20.57,59.47L20.57,93.94L10,93.94L10,16.06ZM20.57,50.38L34.43,50.38C36.477,50.379 38.52,50.212 40.54,49.88C42.425,49.595 44.246,48.983 45.92,48.07C47.512,47.178 48.828,45.862 49.72,44.27C50.75,42.289 51.243,40.071 51.15,37.84C51.243,35.606 50.75,33.385 49.72,31.4C48.827,29.81 47.512,28.498 45.92,27.61C44.247,26.694 42.426,26.078 40.54,25.79C38.52,25.462 36.477,25.298 34.43,25.3L20.57,25.3L20.57,50.38Z" style="fill:rgb(36,53,106);fill-rule:nonzero;"/>
    </g>
    <g transform="matrix(1,0,0,1,-10,-7.12)">
        <rect x="75.24" y="16.06" width="10.56" height="77.88" style="fill:rgb(36,53,106);fill-rule:nonzero;"/>
    </g>
    <g transform="matrix(1,0,0,1,-10,-7.12)">
        <path d="M105.82,16.06L116.38,16.06L116.38,84L152.13,84L152.13,93.9L105.82,93.9L105.82,16.06Z" style="fill:rgb(36,53,106);fill-rule:nonzero;"/>
    </g>
    <g transform="matrix(1,0,0,1,-10,-7.12)">
        <path d="M256.74,77.66C258.521,80.428 261.058,82.628 264.05,84C266.932,85.326 270.068,86.009 273.24,86C275.068,85.987 276.883,85.708 278.63,85.17C280.426,84.639 282.117,83.804 283.63,82.7C285.122,81.607 286.378,80.222 287.32,78.63C288.3,76.919 288.795,74.972 288.75,73C288.915,70.389 287.857,67.844 285.89,66.12C283.757,64.409 281.358,63.058 278.79,62.12C275.97,61.06 272.89,60.033 269.55,59.04C266.302,58.116 263.194,56.757 260.31,55C257.444,53.196 255.02,50.769 253.22,47.9C251.313,44.933 250.36,40.933 250.36,35.9C250.474,30.515 252.685,25.382 256.52,21.6C258.882,19.311 261.662,17.498 264.71,16.26C268.541,14.74 272.64,14.012 276.76,14.12C280.902,14.089 285.027,14.669 289,15.84C293.046,17.139 296.603,19.637 299.2,23L290.62,30.81C289.221,28.686 287.281,26.974 285,25.85C282.443,24.578 279.616,23.943 276.76,24C274.27,23.924 271.787,24.314 269.44,25.15C267.687,25.805 266.095,26.828 264.77,28.15C263.67,29.235 262.824,30.55 262.29,32C261.842,33.235 261.602,34.536 261.58,35.85C261.58,39.15 262.533,41.68 264.44,43.44C266.512,45.303 268.918,46.759 271.53,47.73C274.55,48.905 277.635,49.907 280.77,50.73C283.988,51.559 287.089,52.789 290,54.39C292.811,55.962 295.237,58.142 297.1,60.77C299,63.437 299.953,67.123 299.96,71.83C300.022,75.338 299.291,78.815 297.82,82C296.464,84.915 294.496,87.504 292.05,89.59C289.52,91.703 286.607,93.309 283.47,94.32C280.062,95.437 276.496,95.994 272.91,95.97C268.056,95.995 263.24,95.099 258.72,93.33C254.442,91.723 250.73,88.891 248.05,85.19L256.74,77.66Z" style="fill:rgb(36,53,106);fill-rule:nonzero;"/>
    </g>
    <g id="path16" transform="matrix(1,0,0,1,-10,-7.12)">
        <path d="M186.52,63.44C182.601,59.796 180.46,54.618 180.66,49.27C181.476,39.215 189.978,31.375 200.066,31.375C210.447,31.375 219.096,39.677 219.52,50.05C219.489,55.124 217.372,59.969 213.67,63.44C213.242,63.88 213.242,64.59 213.67,65.03C213.729,65.101 213.796,65.165 213.87,65.22C215.706,66.487 217.181,68.211 218.15,70.22C218.436,70.812 219.157,71.064 219.75,70.78C219.855,70.736 219.95,70.671 220.03,70.59C226.057,65.214 229.43,57.454 229.25,49.38C228.87,34.52 216.39,22.38 200.95,21.99C184.53,21.49 171,34.26 171,50C171.019,57.831 174.384,65.291 180.24,70.49C180.465,70.719 180.774,70.848 181.095,70.848C181.416,70.848 181.725,70.719 181.95,70.49C182.029,70.39 182.099,70.283 182.16,70.17C183.134,68.164 184.608,66.442 186.44,65.17C186.749,64.958 186.934,64.606 186.934,64.231C186.934,63.998 186.863,63.771 186.73,63.58L186.57,63.38L186.52,63.44ZM200.1,7.12C175.1,7.12 154.78,26.67 154.78,50.83C154.924,67.746 164.876,83.121 180.25,90.18C180.417,90.266 180.602,90.311 180.79,90.311C181.232,90.311 181.638,90.063 181.84,89.67C181.971,89.473 182.028,89.235 182,89C181.53,86 181.14,83 180.92,80.35C180.888,79.986 180.678,79.66 180.36,79.48C170.518,73.227 164.545,62.34 164.56,50.68C164.7,31.88 180.62,16.58 200.09,16.52C219.56,16.46 235.8,31.89 235.8,50.87C235.709,62.655 229.529,73.592 219.48,79.75C219.27,82.49 218.86,85.75 218.35,88.97C218.339,89.036 218.333,89.103 218.333,89.17C218.333,89.754 218.771,90.254 219.35,90.33C219.599,90.379 219.857,90.34 220.08,90.22C235.449,83.183 245.404,67.823 245.55,50.92C245.42,26.67 225.14,7.12 200.1,7.12Z" style="fill:rgb(36,53,106);fill-rule:nonzero;"/>
    </g>
    <g id="Ebene_2-2" transform="matrix(1,0,0,1,-1.66,0)">
        <g id="path18" transform="matrix(1,0,0,1,-8.34,-7.12)">
            <path d="M208.89,99.62C207.89,103.33 203.89,104.19 200.1,104.19C196.31,104.19 192.35,103.33 191.31,99.62C189.72,94.08 187.14,80.15 187.14,73.71C187.14,66.88 193.51,65.16 200.14,65.16C206.77,65.16 213,66.75 213,73.66C213,80.03 210.39,93.97 208.85,99.58L208.89,99.62Z" style="fill:rgb(245,170,5);fill-rule:nonzero;"/>
        </g>
        <g id="ellipse20" transform="matrix(1,0,0,1,-8.34,-7.12)">
            <path d="M200.1,37C206.763,37.267 212.1,42.821 212.1,49.49C212.1,56.347 206.457,61.99 199.6,61.99C192.743,61.99 187.1,56.347 187.1,49.49C187.1,49.487 187.1,49.483 187.1,49.48C187.239,42.59 192.946,36.997 199.837,36.997C199.925,36.997 200.012,36.998 200.1,37Z" style="fill:rgb(245,170,5);fill-rule:nonzero;"/>
        </g>
    </g>
</svg>
