<?xml version="1.0" encoding="UTF-8" standalone="no"?>
<!DOCTYPE svg PUBLIC "-//W3C//DTD SVG 1.1//EN" "http://www.w3.org/Graphics/SVG/1.1/DTD/svg11.dtd">
<svg width="100%" height="100%" viewBox="0 0 290 98" version="1.1" xmlns="http://www.w3.org/2000/svg" xmlns:xlink="http://www.w3.org/1999/xlink" xml:space="preserve" xmlns:serif="http://www.serif.com/" style="fill-rule:evenodd;clip-rule:evenodd;stroke-linejoin:round;stroke-miterlimit:2;">
    <g id="Ebene_1-2">
        <path d="M0,8.94L27.4,8.94C31.6,8.8 35.78,9.48 39.72,10.94C42.62,12.07 45.24,13.84 47.37,16.11C49.19,18.11 50.53,20.51 51.27,23.11C51.98,25.56 52.35,28.1 52.37,30.65C52.35,33.2 51.98,35.73 51.27,38.18C50.53,40.78 49.19,43.18 47.37,45.18C45.24,47.45 42.62,49.22 39.72,50.35C35.78,51.82 31.6,52.5 27.4,52.35L10.57,52.35L10.57,86.82L0,86.82L0,8.94ZM10.57,43.26L24.43,43.26C26.48,43.26 28.52,43.09 30.54,42.76C32.43,42.48 34.25,41.86 35.92,40.95C37.51,40.06 38.83,38.74 39.72,37.15C40.75,35.17 41.24,32.95 41.15,30.72C41.24,28.49 40.75,26.27 39.72,24.28C38.83,22.69 37.51,21.38 35.92,20.49C34.25,19.57 32.43,18.96 30.54,18.67C28.52,18.34 26.48,18.18 24.43,18.18L10.57,18.18L10.57,43.26Z" style="fill:white;fill-rule:nonzero;"/>
        <rect x="65.24" y="8.94" width="10.56" height="77.88" style="fill:white;fill-rule:nonzero;"/>
        <path d="M95.82,8.94L106.38,8.94L106.38,76.88L142.13,76.88L142.13,86.78L95.82,86.78L95.82,8.94Z" style="fill:white;fill-rule:nonzero;"/>
        <path d="M188.66,88.8C183.04,88.86 177.47,87.79 172.27,85.66C167.45,83.69 163.09,80.75 159.45,77.03C155.85,73.28 153.01,68.86 151.09,64.03C149.06,58.88 148.04,53.39 148.09,47.86C148.04,42.33 149.06,36.84 151.09,31.69C153.01,26.86 155.85,22.44 159.45,18.69C163.09,14.97 167.45,12.03 172.27,10.05C182.8,5.88 194.52,5.88 205.05,10.05C209.87,12.03 214.22,14.97 217.86,18.69C221.47,22.43 224.31,26.85 226.22,31.69C228.26,36.83 229.28,42.33 229.22,47.86C229.28,53.39 228.26,58.89 226.22,64.03C224.31,68.87 221.47,73.29 217.86,77.03C214.22,80.75 209.86,83.69 205.05,85.66C199.85,87.79 194.28,88.86 188.66,88.8ZM188.66,78.9C196.75,79.04 204.51,75.72 210,69.77C212.61,66.89 214.63,63.53 215.94,59.88C218.73,52.09 218.73,43.58 215.94,35.79C214.62,32.17 212.6,28.84 210,25.99C199.02,14.2 180.57,13.55 168.79,24.52C168.28,24.99 167.79,25.48 167.32,25.99C164.7,28.86 162.69,32.22 161.38,35.88C158.59,43.67 158.59,52.18 161.38,59.97C162.69,63.61 164.71,66.96 167.32,69.82C172.82,75.74 180.58,79.04 188.66,78.88L188.66,78.9Z" style="fill:none;fill-rule:nonzero;"/>
        <path d="M246.74,70.54C248.52,73.31 251.06,75.51 254.05,76.88C256.93,78.21 260.07,78.89 263.24,78.88C265.07,78.87 266.88,78.59 268.63,78.05C270.43,77.52 272.12,76.68 273.63,75.58C275.12,74.49 276.38,73.1 277.32,71.51C278.3,69.8 278.79,67.85 278.75,65.88C278.92,63.27 277.86,60.73 275.89,59C273.76,57.29 271.36,55.94 268.79,55C265.97,53.94 262.89,52.91 259.55,51.92C256.3,51 253.19,49.64 250.31,47.88C247.44,46.08 245.02,43.65 243.22,40.78C241.31,37.81 240.36,33.81 240.36,28.78C240.47,23.39 242.68,18.26 246.52,14.48C248.88,12.19 251.66,10.38 254.71,9.14C258.54,7.62 262.64,6.89 266.76,7C270.9,6.97 275.03,7.55 279,8.72C283.05,10.02 286.6,12.52 289.2,15.88L280.62,23.69C279.22,21.57 277.28,19.85 275,18.73C272.44,17.46 269.62,16.82 266.76,16.88C264.27,16.8 261.79,17.19 259.44,18.03C257.69,18.69 256.09,19.71 254.77,21.03C253.67,22.12 252.82,23.43 252.29,24.88C251.84,26.12 251.6,27.42 251.58,28.73C251.58,32.03 252.53,34.56 254.44,36.32C256.51,38.18 258.92,39.64 261.53,40.61C264.55,41.78 267.64,42.79 270.77,43.61C273.99,44.44 277.09,45.67 280,47.27C282.81,48.84 285.24,51.02 287.1,53.65C289,56.32 289.95,60 289.96,64.71C290.02,68.22 289.29,71.69 287.82,74.88C286.46,77.8 284.5,80.38 282.05,82.47C279.52,84.58 276.61,86.19 273.47,87.2C270.06,88.32 266.5,88.87 262.91,88.85C258.06,88.88 253.24,87.98 248.72,86.21C244.44,84.6 240.73,81.77 238.05,78.07L246.74,70.54Z" style="fill:white;fill-rule:nonzero;"/>
        <path id="path16" d="M176.52,56.32C172.6,52.67 170.46,47.5 170.66,42.15C171.53,31.43 180.92,23.45 191.64,24.32C201.45,25.12 209.12,33.1 209.52,42.93C209.49,48.01 207.37,52.85 203.67,56.32C203.24,56.76 203.24,57.47 203.67,57.91C203.73,57.98 203.8,58.04 203.87,58.1C205.71,59.37 207.18,61.09 208.15,63.1C208.44,63.7 209.15,63.95 209.75,63.66C209.85,63.62 209.95,63.55 210.03,63.47C216.06,58.09 219.43,50.34 219.25,42.26C218.87,27.4 206.39,15.26 190.95,14.87C174.53,14.37 161,27.14 161,42.88C161.02,50.71 164.38,58.17 170.24,63.37C170.71,63.84 171.46,63.85 171.94,63.38L171.95,63.37C172.03,63.27 172.1,63.16 172.16,63.05C173.13,61.04 174.61,59.32 176.44,58.05C176.96,57.69 177.09,56.98 176.73,56.46L176.57,56.26L176.52,56.32ZM190.1,0C165.1,0 144.78,19.55 144.78,43.71C144.92,60.65 154.85,75.99 170.25,83.06C170.83,83.36 171.54,83.13 171.84,82.55C171.97,82.35 172.03,82.12 172,81.88C171.53,78.88 171.14,75.88 170.92,73.23C170.89,72.87 170.68,72.54 170.36,72.36C160.51,66.1 154.55,55.23 154.56,43.56C154.7,24.76 170.62,9.46 190.09,9.4C209.56,9.34 225.8,24.77 225.8,43.75C225.71,55.55 219.54,66.47 209.48,72.63C209.27,75.37 208.86,78.63 208.35,81.85C208.24,82.49 208.67,83.09 209.3,83.2L209.35,83.2C209.6,83.25 209.86,83.2 210.08,83.09C225.48,76.04 235.4,60.72 235.55,43.79C235.42,19.54 215.14,-0.01 190.1,-0.01L190.1,0Z" style="fill:white;fill-rule:nonzero;"/>
        <path id="path18" d="M198.89,92.5C197.89,96.21 193.89,97.07 190.1,97.07C186.31,97.07 182.35,96.21 181.31,92.5C179.72,86.96 177.14,73.03 177.14,66.59C177.14,59.76 183.51,58.04 190.14,58.04C196.77,58.04 203,59.63 203,66.54C203,72.91 200.39,86.85 198.85,92.46L198.89,92.5Z" style="fill:white;fill-rule:nonzero;"/>
        <path id="ellipse20" d="M190.1,29.88C197,30.16 202.37,35.97 202.09,42.87C201.81,49.77 196,55.14 189.1,54.86C182.39,54.59 177.09,49.07 177.1,42.36C177.24,35.33 183.06,29.74 190.09,29.88L190.1,29.88Z" style="fill:white;fill-rule:nonzero;"/>
    </g>
</svg>
