<svg xmlns="http://www.w3.org/2000/svg" viewBox="0 0 1839.44 162.94"><defs><style>.cls-1{fill:#80ba27;}.cls-2{fill:#4b5c66;}.cls-3{fill:#4c5c66;}.cls-4{fill:#7eba28;}.cls-5{fill:#9c182f;}.cls-6{fill:none;stroke:#4c5c66;stroke-miterlimit:10;stroke-width:4px;}</style></defs><g id="Ebene_2" data-name="Ebene 2"><g id="Ebene_1-2" data-name="Ebene 1"><polygon class="cls-1" points="73.31 105.5 54.98 105.5 54.98 87.17 73.31 87.17 73.31 105.5 73.31 105.5"/><polygon class="cls-1" points="73.31 78.01 54.98 78.01 54.98 59.68 73.31 59.68 73.31 78.01 73.31 78.01"/><polygon class="cls-1" points="73.31 50.52 54.98 50.52 54.98 32.19 73.31 32.19 73.31 50.52 73.31 50.52"/><polygon class="cls-1" points="73.31 23.02 54.98 23.02 54.98 4.7 73.31 4.7 73.31 23.02 73.31 23.02"/><polygon class="cls-1" points="45.82 50.52 27.49 50.52 27.49 32.19 45.82 32.19 45.82 50.52 45.82 50.52"/><polygon class="cls-1" points="45.82 23.02 27.49 23.02 27.49 4.7 45.82 4.7 45.82 23.02 45.82 23.02"/><polygon class="cls-1" points="18.33 50.52 0 50.52 0 32.19 18.33 32.19 18.33 50.52 18.33 50.52"/><polygon class="cls-1" points="45.82 105.5 27.49 105.5 27.49 87.17 45.82 87.17 45.82 105.5 45.82 105.5"/><polygon class="cls-1" points="45.82 78.01 27.49 78.01 27.49 59.68 45.82 59.68 45.82 78.01 45.82 78.01"/><polygon class="cls-1" points="18.33 105.5 0 105.5 0 87.17 18.33 87.17 18.33 105.5 18.33 105.5"/><polygon class="cls-1" points="18.33 78.01 0 78.01 0 59.68 18.33 59.68 18.33 78.01 18.33 78.01"/><polygon class="cls-1" points="194.41 23.02 194.41 105.5 173.98 105.5 173.98 23.02 146.62 23.02 146.62 4.7 221.77 4.7 221.77 23.02 194.41 23.02 194.41 23.02"/><polygon class="cls-1" points="300.56 105.5 300.56 63.37 265.12 63.37 265.12 105.5 244.68 105.5 244.68 4.7 265.12 4.7 265.12 45.28 300.56 45.28 300.56 4.7 321 4.7 321 105.5 300.56 105.5 300.56 105.5"/><polygon class="cls-1" points="418.32 105.5 418.32 48.38 398.79 87.17 384.01 87.17 364.35 48.38 364.35 105.5 343.91 105.5 343.91 4.7 364.06 4.7 391.41 61.33 418.61 4.7 438.76 4.7 438.76 105.5 418.32 105.5 418.32 105.5"/><path class="cls-2" d="M10,148.89v-2.38H0v2.38H3.71v19.62H6.36V148.89Zm12.13,19.62v-2.38H16.34v-7.48h5v-2.37h-5v-7.39h5.83v-2.38H13.68v22Zm13.69-5.44H33.24a4.56,4.56,0,0,1-.71,2.54,2.11,2.11,0,0,1-1.73.77,2.17,2.17,0,0,1-1.83-.83c-.77-1.06-.89-2.82-.89-8s.12-7,.89-8a2.17,2.17,0,0,1,1.83-.83,2.11,2.11,0,0,1,1.73.77,4.24,4.24,0,0,1,.71,2.51h2.62a6.14,6.14,0,0,0-1.57-4.36,4.74,4.74,0,0,0-3.49-1.29,4.71,4.71,0,0,0-3.77,1.6c-1.45,1.67-1.61,3.55-1.61,9.64s.16,8,1.61,9.64a4.71,4.71,0,0,0,3.77,1.6,4.87,4.87,0,0,0,3.4-1.2,6.17,6.17,0,0,0,1.66-4.48M50,168.51v-22H47.31v9.61H42.42v-9.61H39.77v22h2.65v-10h4.89v10Zm15.28,0v-22H62.58v15.05L57,146.51H54.49v22h2.65v-15l5.69,15Zm7.54-22H70.12v22h2.66v-22Zm14.37,16.1c0-3.46-.59-5-3.09-6l-2.47-1c-1.76-.74-2.1-1.39-2.1-3.55a3.84,3.84,0,0,1,.77-2.63,2.23,2.23,0,0,1,1.7-.68,2.17,2.17,0,0,1,1.8.75,3.89,3.89,0,0,1,.67,2.65h2.66c0-2-.34-3.43-1.45-4.51A5.07,5.07,0,0,0,82,146.33a5,5,0,0,0-3.49,1.26,5.92,5.92,0,0,0-1.67,4.51c0,3.34.75,4.58,3,5.5l2.5,1c1.8.74,2.17,1.52,2.17,4,0,1.45-.13,2.29-.71,2.94a2.84,2.84,0,0,1-3.72,0c-.58-.62-.74-1.42-.74-2.88H76.68c0,2.35.34,3.62,1.36,4.64a5.27,5.27,0,0,0,3.86,1.32,5.46,5.46,0,0,0,3.89-1.32c1-1.05,1.36-2.5,1.36-4.79m13.81.46H98.34a4.56,4.56,0,0,1-.71,2.54,2.11,2.11,0,0,1-1.73.77,2.17,2.17,0,0,1-1.83-.83c-.77-1.06-.89-2.82-.89-8s.12-7,.89-8a2.17,2.17,0,0,1,1.83-.83,2.11,2.11,0,0,1,1.73.77,4.24,4.24,0,0,1,.71,2.51H101a6.14,6.14,0,0,0-1.57-4.36,5.3,5.3,0,0,0-7.26.31c-1.45,1.67-1.61,3.55-1.61,9.64s.16,8,1.61,9.64a4.71,4.71,0,0,0,3.77,1.6,4.83,4.83,0,0,0,3.39-1.2,6.13,6.13,0,0,0,1.67-4.48m13.93,5.44v-22h-2.65v9.61h-4.88v-9.61H104.7v22h2.66v-10h4.88v10Zm13,0v-2.38h-5.84v-7.48h5v-2.37h-5v-7.39h5.84v-2.38h-8.5v22Zm21,0v-22h-2.65v9.61h-4.88v-9.61h-2.66v22h2.66v-10h4.88v10Zm14.77-11c0-6.09-.18-8.06-1.6-9.64a5.24,5.24,0,0,0-7.54,0c-1.42,1.58-1.61,3.55-1.61,9.64s.19,8.06,1.61,9.64a5.24,5.24,0,0,0,7.54,0c1.42-1.58,1.6-3.55,1.6-9.64m-2.65,0c0,5.22-.15,7-.93,8a2.1,2.1,0,0,1-1.79.83,2.18,2.18,0,0,1-1.83-.83c-.77-1.06-.89-2.82-.89-8s.12-7,.89-8a2.18,2.18,0,0,1,1.83-.83,2.1,2.1,0,0,1,1.79.83c.78,1.06.93,2.82.93,8m16.87,5.56h-2.62a4.56,4.56,0,0,1-.71,2.54,2.11,2.11,0,0,1-1.73.77,2.18,2.18,0,0,1-1.83-.83c-.77-1.06-.89-2.82-.89-8s.12-7,.89-8a2.18,2.18,0,0,1,1.83-.83,2.11,2.11,0,0,1,1.73.77,4.17,4.17,0,0,1,.71,2.51h2.62a6.14,6.14,0,0,0-1.57-4.36,5.3,5.3,0,0,0-7.26.31c-1.45,1.67-1.61,3.55-1.61,9.64s.16,8,1.61,9.64a4.73,4.73,0,0,0,3.77,1.6,4.87,4.87,0,0,0,3.4-1.2,6.13,6.13,0,0,0,1.66-4.48m14.1,5.44v-22h-2.65v9.61h-4.89v-9.61h-2.65v22h2.65v-10h4.89v10Zm14.38-5.9c0-3.46-.59-5-3.09-6l-2.47-1c-1.76-.74-2.11-1.39-2.11-3.55a3.84,3.84,0,0,1,.78-2.63,2.21,2.21,0,0,1,1.7-.68,2.15,2.15,0,0,1,1.79.75,3.84,3.84,0,0,1,.68,2.65h2.66c0-2-.35-3.43-1.45-4.51a5.08,5.08,0,0,0-3.65-1.26,5,5,0,0,0-3.49,1.26,5.92,5.92,0,0,0-1.67,4.51c0,3.34.74,4.58,3,5.5l2.5,1c1.79.74,2.16,1.52,2.16,4,0,1.45-.12,2.29-.71,2.94a2.82,2.82,0,0,1-3.71,0c-.59-.62-.74-1.42-.74-2.88h-2.66c0,2.35.35,3.62,1.36,4.64a5.3,5.3,0,0,0,3.87,1.32A5.46,5.46,0,0,0,205,167.4c1.05-1.05,1.36-2.5,1.36-4.79m13.81.46h-2.63a4.41,4.41,0,0,1-.71,2.54,2.09,2.09,0,0,1-1.73.77,2.16,2.16,0,0,1-1.82-.83c-.77-1.06-.9-2.82-.9-8s.13-7,.9-8a2.16,2.16,0,0,1,1.82-.83,2.09,2.09,0,0,1,1.73.77,4.1,4.1,0,0,1,.71,2.51h2.63a6.14,6.14,0,0,0-1.58-4.36,5.3,5.3,0,0,0-7.26.31c-1.45,1.67-1.6,3.55-1.6,9.64s.15,8,1.6,9.64a4.74,4.74,0,0,0,3.77,1.6,4.85,4.85,0,0,0,3.4-1.2,6.13,6.13,0,0,0,1.67-4.48m13.93,5.44v-22h-2.66v9.61h-4.88v-9.61h-2.65v22h2.65v-10h4.88v10Zm14.59-5v-17h-2.66v17.15a2.44,2.44,0,1,1-4.85,0V146.51h-2.66v17A5.23,5.23,0,0,0,240,167.3a5,5,0,0,0,3.65,1.45,5.11,5.11,0,0,0,3.68-1.45,5.23,5.23,0,0,0,1.42-3.79m12.92,5v-2.38h-5.85V146.51h-2.65v22Zm12.15,0v-2.38H268v-7.48h5v-2.37h-5v-7.39h5.84v-2.38H265.3v22Zm24.68,0v-22H296l-4.41,12.24-4.46-12.24h-2.5v22h2.66V153.09l3.43,10h1.64l3.49-10.28v15.66Zm7.08-22h-2.66v22h2.66v-22Zm13.68,2.38v-2.38h-10v2.38h3.71v19.62h2.66V148.89Zm13,0v-2.38h-10v2.38h3.71v19.62h2.65V148.89Zm12.14,19.62v-2.38h-5.84v-7.48h5v-2.37h-5v-7.39h5.84v-2.38H335.9v22Zm12.44,0v-2.38H351V146.51h-2.65v22Zm13.86,0v-22H368v9.61h-4.88v-9.61h-2.66v22h2.66v-10H368v10Zm13,0v-2.38h-5.84v-7.48h5v-2.37h-5v-7.39h5.84v-2.38h-8.49v22Zm13.85-5.9c0-3.46-.58-5-3.09-6l-2.47-1c-1.76-.74-2.1-1.39-2.1-3.55a3.9,3.9,0,0,1,.77-2.63,2.24,2.24,0,0,1,1.71-.68,2.15,2.15,0,0,1,1.79.75,3.89,3.89,0,0,1,.68,2.65h2.65c0-2-.34-3.43-1.45-4.51a5.07,5.07,0,0,0-3.65-1.26,5,5,0,0,0-3.49,1.26,5.92,5.92,0,0,0-1.66,4.51c0,3.34.74,4.58,3,5.5l2.5,1c1.8.74,2.17,1.52,2.17,4,0,1.45-.13,2.29-.71,2.94a2.82,2.82,0,0,1-3.71,0c-.59-.62-.74-1.42-.74-2.88h-2.66c0,2.35.34,3.62,1.36,4.64a5.27,5.27,0,0,0,3.86,1.32,5.46,5.46,0,0,0,3.89-1.32c1.05-1.05,1.36-2.5,1.36-4.79m14.06,0c0-3.46-.59-5-3.09-6l-2.47-1c-1.76-.74-2.11-1.39-2.11-3.55a3.9,3.9,0,0,1,.77-2.63,2.25,2.25,0,0,1,1.71-.68,2.15,2.15,0,0,1,1.79.75,3.84,3.84,0,0,1,.68,2.65h2.65c0-2-.34-3.43-1.44-4.51a5.08,5.08,0,0,0-3.65-1.26,5,5,0,0,0-3.49,1.26,5.92,5.92,0,0,0-1.67,4.51c0,3.34.74,4.58,3,5.5l2.5,1c1.79.74,2.16,1.52,2.16,4,0,1.45-.12,2.29-.71,2.94a2.82,2.82,0,0,1-3.71,0c-.59-.62-.74-1.42-.74-2.88h-2.65c0,2.35.34,3.62,1.36,4.64a5.27,5.27,0,0,0,3.86,1.32,5.48,5.48,0,0,0,3.89-1.32c1.05-1.05,1.36-2.5,1.36-4.79m12.47,5.9v-2.38h-5.84v-7.48h5v-2.37h-5v-7.39h5.84v-2.38H415.6v22Zm14.7,0v-22h-2.65v15.05l-5.63-15.05H428v22h2.66v-15l5.68,15Z" transform="translate(0 -18.08)"/><polygon class="cls-2" points="108.77 105.49 111.22 105.49 111.22 4.7 108.77 4.7 108.77 105.49 108.77 105.49"/><path class="cls-3" d="M750.61,77h-18v35.11H714.45V18.87h36.16c19.25,0,30.78,13.23,30.78,29.08S769.86,77,750.61,77Zm-.92-41.92h-17V60.65h17c8.25,0,13.49-5.1,13.49-12.7S757.94,35.11,749.69,35.11Z" transform="translate(0 -18.08)"/><path class="cls-3" d="M802.35,112.14V18.87h18.21v93.27Z" transform="translate(0 -18.08)"/><path class="cls-3" d="M847.94,112.14V18.87h18.21v77h42.31v16.25Z" transform="translate(0 -18.08)"/><path class="cls-3" d="M982,102.7c-6.55,6.55-14.54,10.22-25.15,10.22s-18.73-3.67-25.28-10.22c-9.43-9.43-9.17-21.09-9.17-37.2s-.26-27.77,9.17-37.2c6.55-6.55,14.67-10.22,25.28-10.22S975.4,21.75,982,28.3c9.43,9.43,9.3,21.09,9.3,37.2S991.38,93.27,982,102.7ZM968.46,39.3a15.15,15.15,0,0,0-11.66-5,15.44,15.44,0,0,0-11.79,5c-3.54,3.93-4.45,8.25-4.45,26.2s.91,22.27,4.45,26.2a15.44,15.44,0,0,0,11.79,5,15.15,15.15,0,0,0,11.66-5C972,87.77,973,83.45,973,65.5S972,43.23,968.46,39.3Z" transform="translate(0 -18.08)"/><path class="cls-3" d="M1041.16,112.92c-14.14,0-24.89-3-34.06-12.31l11.79-11.79c5.9,5.89,13.89,7.86,22.54,7.86,10.74,0,16.5-4.06,16.5-11.53,0-3.27-.92-6-2.88-7.86s-3.93-2.62-8.25-3.27l-11.27-1.58c-8-1.17-13.88-3.66-18.08-7.72-4.45-4.46-6.68-10.48-6.68-18.34,0-16.64,12.32-28.3,32.49-28.3,12.84,0,22.14,3.14,30.13,10.87l-11.53,11.4c-5.89-5.63-13-6.42-19.12-6.42-9.7,0-14.41,5.37-14.41,11.79a9,9,0,0,0,2.75,6.68,16,16,0,0,0,8.64,3.67l11,1.57c8.51,1.18,13.88,3.54,17.81,7.21,5,4.71,7.21,11.52,7.21,19.78C1075.75,102.7,1060.68,112.92,1041.16,112.92Z" transform="translate(0 -18.08)"/><path class="cls-3" d="M624.81,76.59a18.76,18.76,0,0,1-6-14.52c.43-9.94,8.79-18,19.09-18.38,11.34-.42,20.69,8.34,20.69,19.18a18.88,18.88,0,0,1-6,13.72,1.19,1.19,0,0,0,.12,1.85,13.3,13.3,0,0,1,4.4,5.08,1.24,1.24,0,0,0,2,.38,28.23,28.23,0,0,0,9.43-21.73c-.39-15.24-13.18-27.64-29-28.08-16.82-.46-30.69,12.62-30.69,28.78a28.22,28.22,0,0,0,9.46,21,1.26,1.26,0,0,0,2-.38,13.51,13.51,0,0,1,4.39-5.08,1.18,1.18,0,0,0,.13-1.83Zm13.91-57.72c-25.67,0-46.44,20-46.44,44.8,0,18,10.9,33.13,26.06,40.29a1.22,1.22,0,0,0,1.76-1.26c-.5-3.1-.89-6.18-1.12-8.86a1.14,1.14,0,0,0-.56-.9,34.87,34.87,0,0,1-16.21-29.47c.14-19.26,16.46-34.94,36.4-35,20.18-.06,36.6,15.76,36.6,35.2A35,35,0,0,1,658.5,93.26c-.21,2.8-.65,6.12-1.16,9.44A1.23,1.23,0,0,0,659.1,104c15.11-7.14,26.06-22.24,26.06-40.29C685.16,38.91,664.38,18.87,638.72,18.87Z" transform="translate(0 -18.08)"/><g id="Ebene_2-2" data-name="Ebene 2"><path class="cls-4" d="M647.72,113.6c-1.06,3.8-5.1,4.68-9,4.68s-7.94-.88-9-4.68c-1.58-5.68-4.27-19.94-4.27-26.56,0-7,6.45-8.76,13.27-8.76S652,80,652,87c0,6.58-2.68,20.82-4.27,26.56Z" transform="translate(0 -18.08)"/><ellipse class="cls-4" cx="638.72" cy="44.19" rx="13.27" ry="12.8"/></g><path class="cls-3" d="M722.16,140.6h-4.53v7H715.8V130.54h6.36c3.12,0,5.28,2,5.28,5S725.28,140.6,722.16,140.6Zm-.17-8.42h-4.36V139H722c2.14,0,3.63-1.15,3.63-3.41S724.13,132.18,722,132.18Z" transform="translate(0 -18.08)"/><path class="cls-3" d="M732,147.63V130.54h1.83V146h8.74v1.63Z" transform="translate(0 -18.08)"/><path class="cls-3" d="M756.7,147.63l-1.37-3.86h-7.46l-1.37,3.86h-2l6.29-17.09h1.54l6.26,17.09Zm-5.07-14.47-3.21,9h6.38Z" transform="translate(0 -18.08)"/><path class="cls-3" d="M766,132.18v15.45h-1.82V132.18h-5v-1.64H771v1.64Z" transform="translate(0 -18.08)"/><path class="cls-3" d="M780.2,132.18v15.45h-1.83V132.18h-4.94v-1.64h11.71v1.64Z" transform="translate(0 -18.08)"/><path class="cls-3" d="M791.19,132.18v6.28h7.49v1.64h-7.49v7.53h-1.83V130.54H800v1.64Z" transform="translate(0 -18.08)"/><path class="cls-3" d="M813.53,146a6.25,6.25,0,0,1-8.74,0c-1.6-1.61-1.6-3.29-1.6-6.91s0-5.31,1.6-6.91a6.25,6.25,0,0,1,8.74,0c1.61,1.6,1.61,3.28,1.61,6.91S815.14,144.39,813.53,146Zm-1.41-12.74a4.16,4.16,0,0,0-5.91,0c-1.08,1.1-1.2,2.25-1.2,5.83s.12,4.73,1.2,5.83a4.19,4.19,0,0,0,5.91,0c1.08-1.1,1.2-2.26,1.2-5.83S813.2,134.36,812.12,133.26Z" transform="translate(0 -18.08)"/><path class="cls-3" d="M830.28,147.63l-3.89-7.58h-4.1v7.58h-1.82V130.54H827c3,0,5.06,1.8,5.06,4.76a4.43,4.43,0,0,1-3.72,4.58l4.06,7.75Zm-3.43-15.45h-4.56v6.26h4.56c2,0,3.41-1,3.41-3.12S828.84,132.18,826.85,132.18Z" transform="translate(0 -18.08)"/><path class="cls-3" d="M850.06,147.63v-13l-4.68,10.29h-1.56l-4.75-10.29v13h-1.83V130.54h1.83l5.56,12.12,5.43-12.12h1.82v17.09Z" transform="translate(0 -18.08)"/><path class="cls-3" d="M866.69,132.18v6.28h7.49v1.64h-7.49v7.53h-1.82V130.54h10.6v1.64Z" transform="translate(0 -18.08)"/><path class="cls-3" d="M885.53,147.78a5.64,5.64,0,0,1-5.95-5.79V130.54h1.82v11.31a4.14,4.14,0,1,0,8.28,0V130.54h1.83V142A5.67,5.67,0,0,1,885.53,147.78Zm-3.41-19.08v-2.14h1.73v2.14Zm5.09,0v-2.14h1.73v2.14Z" transform="translate(0 -18.08)"/><path class="cls-3" d="M907.06,147.63l-3.89-7.58h-4.1v7.58h-1.83V130.54h6.55c3,0,5.07,1.8,5.07,4.76a4.43,4.43,0,0,1-3.72,4.58l4.06,7.75Zm-3.43-15.45h-4.56v6.26h4.56c2,0,3.41-1,3.41-3.12S905.62,132.18,903.63,132.18Z" transform="translate(0 -18.08)"/><path class="cls-3" d="M921,147.63V130.54h1.83v17.09Z" transform="translate(0 -18.08)"/><path class="cls-3" d="M939.72,147.63l-9.07-13.7v13.7h-1.82V130.54h1.72l9.08,13.66V130.54h1.82v17.09Z" transform="translate(0 -18.08)"/><path class="cls-3" d="M952.44,132.18v15.45h-1.82V132.18h-5v-1.64h11.72v1.64Z" transform="translate(0 -18.08)"/><path class="cls-3" d="M961.61,147.63V130.54h10.61v1.64h-8.79v6h7.49v1.63h-7.49V146h8.79v1.63Z" transform="translate(0 -18.08)"/><path class="cls-3" d="M986.86,147.63,983,140.05h-4.1v7.58H977V130.54h6.55c3,0,5.07,1.8,5.07,4.76a4.43,4.43,0,0,1-3.72,4.58l4,7.75Zm-3.43-15.45h-4.56v6.26h4.56c2,0,3.4-1,3.4-3.12S985.42,132.18,983.43,132.18Z" transform="translate(0 -18.08)"/><path class="cls-3" d="M1003.78,147.63l-1.37-3.86h-7.47l-1.36,3.86h-2l6.29-17.09h1.54l6.26,17.09Zm-5.07-14.47-3.21,9h6.38Z" transform="translate(0 -18.08)"/><path class="cls-3" d="M1020.14,147.63l-5.2-9.09-3.6,4.32v4.77h-1.83V130.54h1.83v9.82l8-9.82h2.24l-5.38,6.6,6.14,10.49Z" transform="translate(0 -18.08)"/><path class="cls-3" d="M1031.16,132.18v15.45h-1.82V132.18h-4.95v-1.64h11.71v1.64Z" transform="translate(0 -18.08)"/><path class="cls-3" d="M1040.33,147.63V130.54h1.82v17.09Z" transform="translate(0 -18.08)"/><path class="cls-3" d="M1053,147.63h-1.49l-5.61-17.09h1.92l4.44,13.83,4.44-13.83h1.92Z" transform="translate(0 -18.08)"/><path class="cls-3" d="M1062.26,147.63V130.54h10.61v1.64h-8.78v6h7.49v1.63h-7.49V146h8.78v1.63Z" transform="translate(0 -18.08)"/><path class="cls-3" d="M715.8,176.43V159.34h1.83V174.8h8.73v1.63Z" transform="translate(0 -18.08)"/><path class="cls-3" d="M730.59,176.43V159.34h1.82v17.09Z" transform="translate(0 -18.08)"/><path class="cls-3" d="M743.21,176.43h-1.49l-5.61-17.09H738l4.44,13.83,4.44-13.83h1.92Z" transform="translate(0 -18.08)"/><path class="cls-3" d="M752.52,176.43V159.34h10.61V161h-8.78v6h7.49v1.63h-7.49v6.17h8.78v1.63Z" transform="translate(0 -18.08)"/><path class="cls-3" d="M767.31,170.77v-1.61h6.57v1.61Z" transform="translate(0 -18.08)"/><path class="cls-3" d="M788.91,174.8a6.25,6.25,0,0,1-8.74,0c-1.61-1.61-1.61-3.29-1.61-6.91s0-5.31,1.61-6.91a6.25,6.25,0,0,1,8.74,0c1.61,1.6,1.61,3.28,1.61,6.91S790.52,173.19,788.91,174.8Zm-1.42-12.74a4.15,4.15,0,0,0-5.9,0c-1.08,1.1-1.2,2.25-1.2,5.83s.12,4.73,1.2,5.83a4.18,4.18,0,0,0,5.9,0c1.08-1.1,1.2-2.26,1.2-5.83S788.57,163.16,787.49,162.06Z" transform="translate(0 -18.08)"/><path class="cls-3" d="M806.74,176.43l-9.07-13.7v13.7h-1.83V159.34h1.73L806.64,173V159.34h1.83v17.09Z" transform="translate(0 -18.08)"/><path class="cls-3" d="M814.44,176.43V159.34h1.83V174.8H825v1.63Z" transform="translate(0 -18.08)"/><path class="cls-3" d="M829.23,176.43V159.34h1.82v17.09Z" transform="translate(0 -18.08)"/><path class="cls-3" d="M847.92,176.43l-9.07-13.7v13.7H837V159.34h1.72L847.83,173V159.34h1.82v17.09Z" transform="translate(0 -18.08)"/><path class="cls-3" d="M855.63,176.43V159.34h10.6V161h-8.78v6h7.49v1.63h-7.49v6.17h8.78v1.63Z" transform="translate(0 -18.08)"/><path class="cls-3" d="M870.41,170.77v-1.61H877v1.61Z" transform="translate(0 -18.08)"/><path class="cls-3" d="M886.71,176.58a7.45,7.45,0,0,1-5.86-2.26l1.25-1.25a5.84,5.84,0,0,0,4.65,1.87c2.5,0,4-1.17,4-3.16a2.77,2.77,0,0,0-.82-2.14,3.71,3.71,0,0,0-2.23-.82l-2-.31a6.25,6.25,0,0,1-3.14-1.29,4.07,4.07,0,0,1-1.29-3.2c0-2.9,2.08-4.82,5.47-4.82a6.88,6.88,0,0,1,5.09,1.87l-1.18,1.18a5.38,5.38,0,0,0-4-1.47c-2.28,0-3.6,1.28-3.6,3.17a2.5,2.5,0,0,0,.76,2,5,5,0,0,0,2.31.94l1.87.28a5.52,5.52,0,0,1,3.12,1.2,4.28,4.28,0,0,1,1.44,3.39C892.61,174.73,890.26,176.58,886.71,176.58Z" transform="translate(0 -18.08)"/><path class="cls-3" d="M897.46,176.43V159.34h10.61V161h-8.79v6h7.49v1.63h-7.49v6.17h8.79v1.63Z" transform="translate(0 -18.08)"/><path class="cls-3" d="M925.71,176.43v-13L921,173.74h-1.56l-4.76-10.29v13h-1.82V159.34h1.82l5.57,12.12,5.43-12.12h1.82v17.09Z" transform="translate(0 -18.08)"/><path class="cls-3" d="M933.5,176.43V159.34h1.83v17.09Z" transform="translate(0 -18.08)"/><path class="cls-3" d="M952.2,176.43l-9.07-13.7v13.7h-1.82V159.34H943L952.11,173V159.34h1.82v17.09Z" transform="translate(0 -18.08)"/><path class="cls-3" d="M969.87,176.43l-1.37-3.86H961l-1.37,3.86h-1.94L964,159.34h1.54l6.26,17.09ZM964.8,162l-3.22,9H968Z" transform="translate(0 -18.08)"/><path class="cls-3" d="M985.42,176.43l-3.89-7.58h-4.1v7.58H975.6V159.34h6.55c3,0,5.07,1.8,5.07,4.76a4.43,4.43,0,0,1-3.72,4.58l4,7.75ZM982,161h-4.56v6.26H982c2,0,3.4-1,3.4-3.12S984,161,982,161Z" transform="translate(0 -18.08)"/><path class="cls-3" d="M992.38,176.43V159.34H1003V161H994.2v6h7.49v1.63H994.2v6.17H1003v1.63Z" transform="translate(0 -18.08)"/><path class="cls-5" d="M1217.59,115.07c-14.15,0-24.89-3-34.06-12.32L1195.32,91c5.9,5.9,13.89,7.86,22.53,7.86,10.74,0,16.51-4.06,16.51-11.52,0-3.28-.92-6-2.88-7.86s-3.93-2.62-8.26-3.28L1212,74.59c-8-1.18-13.89-3.67-18.08-7.73-4.45-4.45-6.68-10.48-6.68-18.34,0-16.64,12.31-28.29,32.49-28.29,12.83,0,22.13,3.14,30.13,10.87l-11.53,11.4c-5.9-5.64-13-6.42-19.13-6.42-9.69,0-14.41,5.37-14.41,11.79a9,9,0,0,0,2.75,6.68,16.06,16.06,0,0,0,8.65,3.66l11,1.58C1235.67,61,1241,63.32,1245,67c5,4.72,7.2,11.53,7.2,19.78C1252.17,104.85,1237.11,115.07,1217.59,115.07Z" transform="translate(0 -18.08)"/><path class="cls-5" d="M1310.6,37.26v77h-18.21v-77H1268V21H1335V37.26Z" transform="translate(0 -18.08)"/><path class="cls-5" d="M1400.6,114.28l-5.51-16.5H1362l-5.63,16.5h-19L1371.25,21h14.28l34.06,93.27Zm-21.75-65.76-11.79,33.93h23.19Z" transform="translate(0 -18.08)"/><path class="cls-5" d="M1464.52,37.26v77h-18.21v-77H1422V21h66.94V37.26Z" transform="translate(0 -18.08)"/><path class="cls-5" d="M1509.33,114.28V21h18.2v93.27Z" transform="translate(0 -18.08)"/><path class="cls-5" d="M1580.59,115.07c-14.15,0-24.89-3-34.06-12.32L1558.32,91c5.89,5.9,13.88,7.86,22.53,7.86,10.74,0,16.5-4.06,16.5-11.52,0-3.28-.91-6-2.88-7.86s-3.93-2.62-8.25-3.28L1575,74.59c-8-1.18-13.88-3.67-18.07-7.73-4.46-4.45-6.68-10.48-6.68-18.34,0-16.64,12.31-28.29,32.48-28.29,12.84,0,22.14,3.14,30.13,10.87l-11.53,11.4c-5.89-5.64-13-6.42-19.12-6.42-9.69,0-14.41,5.37-14.41,11.79a9,9,0,0,0,2.75,6.68,16,16,0,0,0,8.65,3.66l11,1.58C1598.66,61,1604,63.32,1608,67c5,4.72,7.2,11.53,7.2,19.78C1615.17,104.85,1600.11,115.07,1580.59,115.07Z" transform="translate(0 -18.08)"/><path class="cls-5" d="M1673.6,37.26v77h-18.21v-77H1631V21H1698V37.26Z" transform="translate(0 -18.08)"/><path class="cls-5" d="M1718.4,114.28V21h18.21v93.27Z" transform="translate(0 -18.08)"/><path class="cls-5" d="M1818.22,114.28l-24-42.44-12,14.41v28H1764V21h18.2V61.62L1815.07,21h22.14L1806.3,58.08l33.14,56.2Z" transform="translate(0 -18.08)"/><line class="cls-6" x1="1153.73" y1="4.7" x2="1153.73" y2="162.94"/></g></g></svg>