<?xml version="1.0" encoding="UTF-8" standalone="no"?>
<svg
   xmlns:dc="http://purl.org/dc/elements/1.1/"
   xmlns:cc="http://creativecommons.org/ns#"
   xmlns:rdf="http://www.w3.org/1999/02/22-rdf-syntax-ns#"
   xmlns:svg="http://www.w3.org/2000/svg"
   xmlns="http://www.w3.org/2000/svg"
   xmlns:sodipodi="http://sodipodi.sourceforge.net/DTD/sodipodi-0.dtd"
   xmlns:inkscape="http://www.inkscape.org/namespaces/inkscape"
   height="158.5"
   width="490"
   viewBox="0 0 489.99997 158.5"
   version="1.1"
   id="svg131"
   sodipodi:docname="PILOS.svg"
   inkscape:version="1.0beta2 (unknown)">
  <metadata
     id="metadata135">
    <rdf:RDF>
      <cc:Work
         rdf:about="">
        <dc:format>image/svg+xml</dc:format>
        <dc:type
           rdf:resource="http://purl.org/dc/dcmitype/StillImage" />
        <dc:title></dc:title>
      </cc:Work>
    </rdf:RDF>
  </metadata>
  <sodipodi:namedview
     pagecolor="#ffffff"
     bordercolor="#666666"
     inkscape:document-rotation="0"
     borderopacity="1"
     objecttolerance="10"
     gridtolerance="10"
     guidetolerance="10"
     inkscape:pageopacity="0"
     inkscape:pageshadow="2"
     inkscape:window-width="1920"
     inkscape:window-height="1025"
     id="namedview133"
     showgrid="false"
     inkscape:zoom="0.43230192"
     inkscape:cx="787.61242"
     inkscape:cy="79.25"
     inkscape:window-x="0"
     inkscape:window-y="0"
     inkscape:window-maximized="1"
     inkscape:current-layer="svg131" />
  <defs
     id="defs4">
    <style
       id="style2">.cls-1{fill:#4c5c66;}.cls-2{fill:#7eba28;}.cls-3{fill:#9c182f;}</style>
  </defs>
  <g
     id="Ebene_2"
     data-name="Ebene 2">
    <g
       id="Ebene_1-2"
       data-name="Ebene 1">
      <path
         class="cls-1"
         d="m 158.33,77 h -18 v 35.11 H 122.17 V 18.87 h 36.16 c 19.25,0 30.78,13.23 30.78,29.08 0,15.85 -11.53,29.05 -30.78,29.05 z m -0.92,-41.92 h -17 v 25.57 h 17 c 8.25,0 13.49,-5.1 13.49,-12.7 0,-7.6 -5.24,-12.84 -13.49,-12.84 z"
         transform="translate(0,-18.08)"
         id="path6"
         inkscape:connector-curvature="0" />
      <path
         class="cls-1"
         d="M 210.07,112.14 V 18.87 h 18.21 v 93.27 z"
         transform="translate(0,-18.08)"
         id="path8"
         inkscape:connector-curvature="0" />
      <path
         class="cls-1"
         d="M 255.66,112.14 V 18.87 h 18.21 v 77 h 42.31 v 16.25 z"
         transform="translate(0,-18.08)"
         id="path10"
         inkscape:connector-curvature="0" />
      <path
         class="cls-1"
         d="m 389.67,102.7 c -6.55,6.55 -14.54,10.22 -25.15,10.22 -10.61,0 -18.73,-3.67 -25.28,-10.22 -9.43,-9.43 -9.17,-21.09 -9.17,-37.2 0,-16.11 -0.26,-27.77 9.17,-37.2 6.55,-6.55 14.67,-10.22 25.28,-10.22 10.61,0 18.6,3.67 25.15,10.22 9.43,9.43 9.3,21.09 9.3,37.2 0,16.11 0.13,27.77 -9.3,37.2 z M 376.18,39.3 a 15.15,15.15 0 0 0 -11.66,-5 15.44,15.44 0 0 0 -11.79,5 c -3.54,3.93 -4.45,8.25 -4.45,26.2 0,17.95 0.91,22.27 4.45,26.2 a 15.44,15.44 0 0 0 11.79,5 15.15,15.15 0 0 0 11.66,-5 c 3.54,-3.93 4.58,-8.25 4.58,-26.2 0,-17.95 -1.04,-22.27 -4.58,-26.2 z"
         transform="translate(0,-18.08)"
         id="path12"
         inkscape:connector-curvature="0" />
      <path
         class="cls-1"
         d="m 448.89,112.92 c -14.15,0 -24.89,-3 -34.06,-12.31 l 11.79,-11.79 c 5.89,5.89 13.88,7.86 22.53,7.86 10.74,0 16.5,-4.06 16.5,-11.53 0,-3.27 -0.91,-6 -2.88,-7.86 -1.97,-1.86 -3.93,-2.62 -8.25,-3.27 l -11.27,-1.58 c -8,-1.17 -13.88,-3.66 -18.07,-7.72 -4.46,-4.46 -6.69,-10.48 -6.69,-18.34 0,-16.64 12.32,-28.3 32.49,-28.3 12.84,0 22.14,3.14 30.13,10.87 l -11.53,11.4 c -5.89,-5.63 -13,-6.42 -19.12,-6.42 -9.7,0 -14.41,5.37 -14.41,11.79 a 9,9 0 0 0 2.75,6.68 16,16 0 0 0 8.64,3.67 l 11,1.57 c 8.51,1.18 13.88,3.54 17.81,7.21 5,4.71 7.21,11.52 7.21,19.78 0.01,18.07 -15.06,28.29 -34.57,28.29 z"
         transform="translate(0,-18.08)"
         id="path14"
         inkscape:connector-curvature="0" />
      <path
         class="cls-1"
         d="m 32.53,76.59 a 18.76,18.76 0 0 1 -6,-14.52 c 0.43,-9.94 8.79,-18 19.09,-18.38 C 57,43.27 66.34,52 66.34,62.87 a 18.88,18.88 0 0 1 -6,13.72 1.18,1.18 0 0 0 0.13,1.85 13.28,13.28 0 0 1 4.39,5.08 1.24,1.24 0 0 0 1.95,0.38 28.23,28.23 0 0 0 9.43,-21.73 C 75.85,46.93 63.06,34.53 47.24,34.09 30.43,33.63 16.56,46.71 16.56,62.87 a 28.21,28.21 0 0 0 9.45,21 1.26,1.26 0 0 0 2,-0.38 13.6,13.6 0 0 1 4.39,-5.08 1.18,1.18 0 0 0 0.13,-1.83 z M 46.44,18.87 C 20.77,18.87 0,38.91 0,63.67 0,81.68 10.91,96.8 26.06,104 a 1.22,1.22 0 0 0 1.76,-1.26 c -0.5,-3.1 -0.89,-6.18 -1.12,-8.86 A 1.14,1.14 0 0 0 26.14,92.98 34.9,34.9 0 0 1 9.93,63.47 c 0.15,-19.26 16.46,-34.94 36.41,-35 20.17,-0.06 36.59,15.76 36.59,35.2 A 35,35 0 0 1 66.22,93.26 c -0.21,2.8 -0.64,6.12 -1.16,9.44 a 1.23,1.23 0 0 0 1.76,1.3 C 81.93,96.86 92.88,81.76 92.88,63.71 92.88,38.91 72.11,18.87 46.44,18.87 Z"
         transform="translate(0,-18.08)"
         id="path16"
         inkscape:connector-curvature="0" />
      <g
         id="Ebene_2-2"
         data-name="Ebene 2">
        <path
           class="cls-2"
           d="m 55.44,113.6 c -1.06,3.8 -5.1,4.68 -9,4.68 -3.9,0 -7.94,-0.88 -9,-4.68 -1.57,-5.68 -4.27,-19.94 -4.27,-26.56 0,-7 6.45,-8.76 13.27,-8.76 6.82,0 13.27,1.72 13.27,8.72 0,6.58 -2.68,20.82 -4.27,26.56 z"
           transform="translate(0,-18.08)"
           id="path18"
           inkscape:connector-curvature="0" />
        <ellipse
           class="cls-2"
           cx="46.439999"
           cy="44.189999"
           rx="13.27"
           ry="12.8"
           id="ellipse20" />
      </g>
      <path
         class="cls-1"
         d="m 129.88,140.6 h -4.53 v 7 h -1.83 v -17.06 h 6.36 c 3.13,0 5.29,2 5.29,5 0,3 -2.17,5.06 -5.29,5.06 z m -0.16,-8.42 h -4.37 V 139 h 4.37 c 2.13,0 3.62,-1.15 3.62,-3.41 0,-2.26 -1.49,-3.41 -3.62,-3.41 z"
         transform="translate(0,-18.08)"
         id="path23"
         inkscape:connector-curvature="0" />
      <path
         class="cls-1"
         d="m 139.68,147.63 v -17.09 h 1.82 V 146 h 8.74 v 1.63 z"
         transform="translate(0,-18.08)"
         id="path25"
         inkscape:connector-curvature="0" />
      <path
         class="cls-1"
         d="m 164.42,147.63 -1.37,-3.86 h -7.46 l -1.37,3.86 h -1.94 l 6.28,-17.09 h 1.54 l 6.26,17.09 z m -5.06,-14.47 -3.22,9 h 6.38 z"
         transform="translate(0,-18.08)"
         id="path27"
         inkscape:connector-curvature="0" />
      <path
         class="cls-1"
         d="m 173.73,132.18 v 15.45 h -1.82 V 132.18 H 167 v -1.64 h 11.72 v 1.64 z"
         transform="translate(0,-18.08)"
         id="path29"
         inkscape:connector-curvature="0" />
      <path
         class="cls-1"
         d="m 187.92,132.18 v 15.45 h -1.83 v -15.45 h -4.94 v -1.64 h 11.71 v 1.64 z"
         transform="translate(0,-18.08)"
         id="path31"
         inkscape:connector-curvature="0" />
      <path
         class="cls-1"
         d="m 198.91,132.18 v 6.28 h 7.49 v 1.64 h -7.49 v 7.53 h -1.83 v -17.09 h 10.61 v 1.64 z"
         transform="translate(0,-18.08)"
         id="path33"
         inkscape:connector-curvature="0" />
      <path
         class="cls-1"
         d="m 221.25,146 a 6.24,6.24 0 0 1 -8.73,0 c -1.61,-1.61 -1.61,-3.29 -1.61,-6.91 0,-3.62 0,-5.31 1.61,-6.91 a 6.24,6.24 0 0 1 8.73,0 c 1.61,1.6 1.61,3.28 1.61,6.91 0,3.63 0,5.3 -1.61,6.91 z m -1.41,-12.74 a 4.16,4.16 0 0 0 -5.91,0 c -1.08,1.1 -1.2,2.25 -1.2,5.83 0,3.58 0.12,4.73 1.2,5.83 a 4.19,4.19 0 0 0 5.91,0 c 1.08,-1.1 1.2,-2.26 1.2,-5.83 0,-3.57 -0.12,-4.73 -1.2,-5.83 z"
         transform="translate(0,-18.08)"
         id="path35"
         inkscape:connector-curvature="0" />
      <path
         class="cls-1"
         d="m 238,147.63 -3.88,-7.58 H 230 v 7.58 h -1.82 v -17.09 h 6.55 c 3,0 5.06,1.8 5.06,4.76 a 4.43,4.43 0 0 1 -3.72,4.58 l 4.06,7.75 z m -3.43,-15.45 H 230 v 6.26 h 4.56 c 2,0 3.41,-1 3.41,-3.12 0,-2.12 -1.41,-3.14 -3.4,-3.14 z"
         transform="translate(0,-18.08)"
         id="path37"
         inkscape:connector-curvature="0" />
      <path
         class="cls-1"
         d="m 257.78,147.63 v -13 l -4.68,10.29 h -1.56 l -4.75,-10.29 v 13 H 245 v -17.09 h 1.83 l 5.57,12.12 5.42,-12.12 h 1.82 v 17.09 z"
         transform="translate(0,-18.08)"
         id="path39"
         inkscape:connector-curvature="0" />
      <path
         class="cls-1"
         d="m 274.41,132.18 v 6.28 h 7.49 v 1.64 h -7.49 v 7.53 h -1.82 v -17.09 h 10.61 v 1.64 z"
         transform="translate(0,-18.08)"
         id="path41"
         inkscape:connector-curvature="0" />
      <path
         class="cls-1"
         d="M 293.25,147.78 A 5.65,5.65 0 0 1 287.3,142 v -11.46 h 1.82 v 11.31 a 4.14,4.14 0 1 0 8.28,0 v -11.31 h 1.83 V 142 a 5.67,5.67 0 0 1 -5.98,5.78 z m -3.41,-19.08 v -2.14 h 1.73 v 2.14 z m 5.09,0 v -2.14 h 1.73 v 2.14 z"
         transform="translate(0,-18.08)"
         id="path43"
         inkscape:connector-curvature="0" />
      <path
         class="cls-1"
         d="m 314.78,147.63 -3.89,-7.58 h -4.1 v 7.58 H 305 v -17.09 h 6.56 c 3,0 5.06,1.8 5.06,4.76 a 4.43,4.43 0 0 1 -3.72,4.58 l 4.06,7.75 z m -3.43,-15.45 h -4.56 v 6.26 h 4.56 c 2,0 3.41,-1 3.41,-3.12 0,-2.12 -1.42,-3.14 -3.41,-3.14 z"
         transform="translate(0,-18.08)"
         id="path45"
         inkscape:connector-curvature="0" />
      <path
         class="cls-1"
         d="m 328.75,147.63 v -17.09 h 1.82 v 17.09 z"
         transform="translate(0,-18.08)"
         id="path47"
         inkscape:connector-curvature="0" />
      <path
         class="cls-1"
         d="m 347.44,147.63 -9.07,-13.7 v 13.7 h -1.82 v -17.09 h 1.72 l 9.08,13.66 v -13.66 h 1.82 v 17.09 z"
         transform="translate(0,-18.08)"
         id="path49"
         inkscape:connector-curvature="0" />
      <path
         class="cls-1"
         d="m 360.16,132.18 v 15.45 h -1.82 v -15.45 h -4.95 v -1.64 h 11.72 v 1.64 z"
         transform="translate(0,-18.08)"
         id="path51"
         inkscape:connector-curvature="0" />
      <path
         class="cls-1"
         d="m 369.33,147.63 v -17.09 h 10.61 v 1.64 h -8.79 v 6 h 7.49 v 1.63 h -7.49 V 146 h 8.79 v 1.63 z"
         transform="translate(0,-18.08)"
         id="path53"
         inkscape:connector-curvature="0" />
      <path
         class="cls-1"
         d="m 394.58,147.63 -3.89,-7.58 h -4.1 v 7.58 h -1.83 v -17.09 h 6.55 c 3,0 5.07,1.8 5.07,4.76 a 4.43,4.43 0 0 1 -3.72,4.58 l 4.06,7.75 z m -3.43,-15.45 h -4.56 v 6.26 h 4.56 c 2,0 3.41,-1 3.41,-3.12 0,-2.12 -1.42,-3.14 -3.41,-3.14 z"
         transform="translate(0,-18.08)"
         id="path55"
         inkscape:connector-curvature="0" />
      <path
         class="cls-1"
         d="m 411.5,147.63 -1.37,-3.86 h -7.46 l -1.37,3.86 h -1.95 l 6.29,-17.09 h 1.54 l 6.26,17.09 z m -5.07,-14.47 -3.21,9 h 6.38 z"
         transform="translate(0,-18.08)"
         id="path57"
         inkscape:connector-curvature="0" />
      <path
         class="cls-1"
         d="m 427.87,147.63 -5.21,-9.09 -3.6,4.32 v 4.77 h -1.83 v -17.09 h 1.83 v 9.82 l 8,-9.82 h 2.23 l -5.38,6.6 6.09,10.49 z"
         transform="translate(0,-18.08)"
         id="path59"
         inkscape:connector-curvature="0" />
      <path
         class="cls-1"
         d="m 438.88,132.18 v 15.45 h -1.82 v -15.45 h -4.95 v -1.64 h 11.72 v 1.64 z"
         transform="translate(0,-18.08)"
         id="path61"
         inkscape:connector-curvature="0" />
      <path
         class="cls-1"
         d="m 448.05,147.63 v -17.09 h 1.82 v 17.09 z"
         transform="translate(0,-18.08)"
         id="path63"
         inkscape:connector-curvature="0" />
      <path
         class="cls-1"
         d="m 460.67,147.63 h -1.48 l -5.62,-17.09 h 1.92 l 4.44,13.83 4.44,-13.83 h 1.92 z"
         transform="translate(0,-18.08)"
         id="path65"
         inkscape:connector-curvature="0" />
      <path
         class="cls-1"
         d="m 470,147.63 v -17.09 h 10.61 v 1.64 h -8.78 v 6 h 7.49 v 1.63 h -7.49 V 146 h 8.78 v 1.63 z"
         transform="translate(0,-18.08)"
         id="path67"
         inkscape:connector-curvature="0" />
      <path
         class="cls-1"
         d="m 123.52,176.43 v -17.09 h 1.83 v 15.46 h 8.74 v 1.63 z"
         transform="translate(0,-18.08)"
         id="path69"
         inkscape:connector-curvature="0" />
      <path
         class="cls-1"
         d="m 138.31,176.43 v -17.09 h 1.82 v 17.09 z"
         transform="translate(0,-18.08)"
         id="path71"
         inkscape:connector-curvature="0" />
      <path
         class="cls-1"
         d="m 150.93,176.43 h -1.49 l -5.61,-17.09 h 1.92 l 4.44,13.83 4.44,-13.83 h 1.92 z"
         transform="translate(0,-18.08)"
         id="path73"
         inkscape:connector-curvature="0" />
      <path
         class="cls-1"
         d="m 160.24,176.43 v -17.09 h 10.61 V 161 h -8.78 v 6 h 7.49 v 1.63 h -7.49 v 6.17 h 8.78 v 1.63 z"
         transform="translate(0,-18.08)"
         id="path75"
         inkscape:connector-curvature="0" />
      <path
         class="cls-1"
         d="m 175,170.77 v -1.61 h 6.57 v 1.61 z"
         transform="translate(0,-18.08)"
         id="path77"
         inkscape:connector-curvature="0" />
      <path
         class="cls-1"
         d="m 196.63,174.8 a 6.25,6.25 0 0 1 -8.74,0 c -1.61,-1.61 -1.61,-3.29 -1.61,-6.91 0,-3.62 0,-5.31 1.61,-6.91 a 6.25,6.25 0 0 1 8.74,0 c 1.61,1.6 1.61,3.28 1.61,6.91 0,3.63 0,5.3 -1.61,6.91 z m -1.42,-12.74 a 4.15,4.15 0 0 0 -5.9,0 c -1.08,1.1 -1.2,2.25 -1.2,5.83 0,3.58 0.12,4.73 1.2,5.83 a 4.18,4.18 0 0 0 5.9,0 c 1.08,-1.1 1.2,-2.26 1.2,-5.83 0,-3.57 -0.12,-4.73 -1.2,-5.83 z"
         transform="translate(0,-18.08)"
         id="path79"
         inkscape:connector-curvature="0" />
      <path
         class="cls-1"
         d="m 214.46,176.43 -9.07,-13.7 v 13.7 h -1.83 v -17.09 h 1.73 l 9.07,13.66 v -13.66 h 1.83 v 17.09 z"
         transform="translate(0,-18.08)"
         id="path81"
         inkscape:connector-curvature="0" />
      <path
         class="cls-1"
         d="M 222.16,176.43 V 159.34 H 224 v 15.46 h 8.73 v 1.63 z"
         transform="translate(0,-18.08)"
         id="path83"
         inkscape:connector-curvature="0" />
      <path
         class="cls-1"
         d="m 237,176.43 v -17.09 h 1.82 v 17.09 z"
         transform="translate(0,-18.08)"
         id="path85"
         inkscape:connector-curvature="0" />
      <path
         class="cls-1"
         d="m 255.64,176.43 -9.07,-13.7 v 13.7 h -1.82 v -17.09 h 1.73 l 9.07,13.66 v -13.66 h 1.82 v 17.09 z"
         transform="translate(0,-18.08)"
         id="path87"
         inkscape:connector-curvature="0" />
      <path
         class="cls-1"
         d="M 263.35,176.43 V 159.34 H 274 V 161 h -8.79 v 6 h 7.49 v 1.63 h -7.49 v 6.17 H 274 v 1.63 z"
         transform="translate(0,-18.08)"
         id="path89"
         inkscape:connector-curvature="0" />
      <path
         class="cls-1"
         d="m 278.13,170.77 v -1.61 h 6.58 v 1.61 z"
         transform="translate(0,-18.08)"
         id="path91"
         inkscape:connector-curvature="0" />
      <path
         class="cls-1"
         d="m 294.43,176.58 a 7.45,7.45 0 0 1 -5.86,-2.26 l 1.25,-1.25 a 5.84,5.84 0 0 0 4.66,1.87 c 2.49,0 4,-1.17 4,-3.16 a 2.77,2.77 0 0 0 -0.82,-2.14 3.71,3.71 0 0 0 -2.23,-0.82 l -2,-0.31 A 6.25,6.25 0 0 1 290.28,167.22 4.07,4.07 0 0 1 289,164 c 0,-2.9 2.08,-4.82 5.47,-4.82 a 6.88,6.88 0 0 1 5.09,1.87 l -1.18,1.18 a 5.38,5.38 0 0 0 -4,-1.47 c -2.28,0 -3.6,1.28 -3.6,3.17 a 2.5,2.5 0 0 0 0.76,2 5,5 0 0 0 2.31,0.94 l 1.87,0.28 a 5.52,5.52 0 0 1 3.12,1.2 4.28,4.28 0 0 1 1.44,3.39 c 0.05,2.99 -2.28,4.84 -5.85,4.84 z"
         transform="translate(0,-18.08)"
         id="path93"
         inkscape:connector-curvature="0" />
      <path
         class="cls-1"
         d="m 305.18,176.43 v -17.09 h 10.61 V 161 H 307 v 6 h 7.49 v 1.63 H 307 v 6.17 h 8.79 v 1.63 z"
         transform="translate(0,-18.08)"
         id="path95"
         inkscape:connector-curvature="0" />
      <path
         class="cls-1"
         d="m 333.43,176.43 v -13 l -4.68,10.29 h -1.56 l -4.76,-10.29 v 13 h -1.82 v -17.09 h 1.82 l 5.57,12.12 5.43,-12.12 h 1.82 v 17.09 z"
         transform="translate(0,-18.08)"
         id="path97"
         inkscape:connector-curvature="0" />
      <path
         class="cls-1"
         d="m 341.23,176.43 v -17.09 h 1.82 v 17.09 z"
         transform="translate(0,-18.08)"
         id="path99"
         inkscape:connector-curvature="0" />
      <path
         class="cls-1"
         d="m 359.92,176.43 -9.07,-13.7 v 13.7 H 349 v -17.09 h 1.72 l 9.11,13.66 v -13.66 h 1.82 v 17.09 z"
         transform="translate(0,-18.08)"
         id="path101"
         inkscape:connector-curvature="0" />
      <path
         class="cls-1"
         d="m 377.59,176.43 -1.37,-3.86 h -7.47 l -1.36,3.86 h -1.95 l 6.29,-17.09 h 1.54 l 6.26,17.09 z m -5.07,-14.43 -3.21,9 h 6.38 z"
         transform="translate(0,-18.08)"
         id="path103"
         inkscape:connector-curvature="0" />
      <path
         class="cls-1"
         d="m 393.14,176.43 -3.89,-7.58 h -4.1 v 7.58 h -1.83 v -17.09 h 6.56 c 3,0 5.06,1.8 5.06,4.76 a 4.43,4.43 0 0 1 -3.72,4.58 l 4.06,7.75 z M 389.71,161 h -4.56 v 6.26 h 4.56 c 2,0 3.41,-1 3.41,-3.12 0,-2.12 -1.42,-3.14 -3.41,-3.14 z"
         transform="translate(0,-18.08)"
         id="path105"
         inkscape:connector-curvature="0" />
      <path
         class="cls-1"
         d="m 400.1,176.43 v -17.09 h 10.61 V 161 h -8.79 v 6 h 7.49 v 1.63 h -7.49 v 6.17 h 8.79 v 1.63 z"
         transform="translate(0,-18.08)"
         id="path107"
         inkscape:connector-curvature="0" />
    </g>
  </g>
</svg>
